<?xml version="1.0" encoding="utf-8"?>
<!-- Generator: Adobe Illustrator 21.1.0, SVG Export Plug-In . SVG Version: 6.00 Build 0)  -->
<svg version="1.1" id="Layer_1" xmlns="http://www.w3.org/2000/svg" xmlns:xlink="http://www.w3.org/1999/xlink" x="0px" y="0px"
	 viewBox="0 0 841.9 595.3" style="enable-background:new 0 0 841.9 595.3;" xml:space="preserve">
<style type="text/css">
	.st0{fill:#FFFFFF;}
</style>
<g>
	<path class="st0" d="M455.7,368.7c-5.2,0-8.7-1.8-13.9-3.5l-20.9-8.8l-20.8,8.8c-3.5,1.7-8.7,3.5-13.9,3.5c-3.5,0-5.3,0-8.7-1.8
		l-8.7,67.9l52.2-34.8l52.2,34.8l-10.4-67.9C461,368.7,457.5,368.7,455.7,368.7L455.7,368.7z M455.7,368.7"/>
	<path class="st0" d="M506.2,259c-1.7-3.5-1.7-8.7,0-12.2l10.4-20.9c3.5-7,0-15.6-8.7-19.1l-22.6-8.7c-3.5-1.8-7-5.3-8.7-8.7
		l-8.7-22.6c-1.7-7-6.9-10.4-12.2-10.4c-1.7,0-5.2,0-7,1.7l-22.6,10.5h-5.3c-1.7,0-3.4,0-5.2-1.7l-22.6-8.7c-1.8-1.7-5.3-1.7-7-1.7
		c-5.3,0-10.4,3.5-13.9,8.7l-8.7,24.4c0,3.5-3.5,7-7,8.7l-24.4,8.7c-7,1.7-10.5,10.5-7,19.1l10.5,22.6c1.7,3.5,1.7,8.8,0,12.2
		l-10.5,20.9c-3.5,6.9,0,15.6,8.7,19.1l22.7,8.7c3.5,1.8,7,5.3,8.7,8.7l8.8,22.6c1.7,7,6.9,10.5,12.1,10.5c1.7,0,3.5,0,5.2-1.8
		l22.7-10.5c1.7,0,3.5-1.7,5.2-1.7c1.7,0,3.5,0,5.2,1.7l22.7,10.5c1.7,1.8,3.5,1.8,5.2,1.8c5.3,0,10.5-3.5,13.9-8.7l8.7-22.6
		c1.8-3.5,5.3-7,8.8-8.7l22.6-8.7c7-3.5,12.1-12.2,8.7-19.1L506.2,259z M420.9,323.4c-38.2,0-69.6-31.4-69.6-69.6
		c0-38.3,31.3-69.6,69.6-69.6c38.3,0,69.7,31.3,69.7,69.6C490.6,292.1,459.2,323.4,420.9,323.4L420.9,323.4z M420.9,323.4"/>
</g>
<path class="st0" d="M473.1,253.8c0,28.8-23.4,52.2-52.2,52.2c-28.8,0-52.2-23.4-52.2-52.2c0-28.8,23.4-52.2,52.2-52.2
	C449.8,201.6,473.1,225,473.1,253.8L473.1,253.8z M473.1,253.8"/>
</svg>
