<?xml version="1.0" encoding="utf-8"?>
<!-- Generator: Adobe Illustrator 21.1.0, SVG Export Plug-In . SVG Version: 6.00 Build 0)  -->
<svg version="1.1" id="Lag_1" xmlns="http://www.w3.org/2000/svg" xmlns:xlink="http://www.w3.org/1999/xlink" x="0px" y="0px"
	 viewBox="0 0 221.7 225.2" style="enable-background:new 0 0 221.7 225.2;" xml:space="preserve">
<style type="text/css">
	.st0{fill-rule:evenodd;clip-rule:evenodd;fill:#FFFFFF;}
</style>
<path class="st0" d="M0,112.6l20-20c2.9-2.9,7.5-2.9,10.4,0c2.9,2.9,2.9,7.5,0,10.4l0.1-0.1c-0.1,0.1-1.5,1.5-1.5,1.5
	c-4.6,4.6-4.6,12,0,16.5c0,0,1.3,1.3,1.4,1.4c2.9,2.9,2.9,7.5,0,10.4c-2.9,2.9-7.5,2.9-10.4,0L0,112.6L0,112.6z"/>
<path class="st0" d="M221.7,112.6l-20,20c-2.9,2.9-7.5,2.9-10.4,0c-2.9-2.9-2.9-7.5,0-10.4l-0.1,0.1c0.1-0.1,1.5-1.5,1.5-1.5
	c4.6-4.6,4.6-12,0-16.5c0,0-1.3-1.3-1.4-1.4c-2.9-2.9-2.9-7.5,0-10.4c2.9-2.9,7.5-2.9,10.4,0L221.7,112.6L221.7,112.6z"/>
<path class="st0" d="M110.9,0l20,20c2.9,2.9,2.9,7.5,0,10.4c-2.9,2.9-7.5,2.9-10.4,0l0.1,0.1c-0.1-0.1-1.5-1.5-1.5-1.5
	c-4.6-4.6-12-4.6-16.5,0c0,0-1.3,1.3-1.4,1.4c-2.9,2.9-7.5,2.9-10.4,0s-2.9-7.5,0-10.4L110.9,0L110.9,0z"/>
<path class="st0" d="M110.9,225.2l-20-20c-2.9-2.9-2.9-7.5,0-10.4c2.9-2.9,7.5-2.9,10.4,0l-0.1-0.1c0.1,0.1,1.5,1.5,1.5,1.5
	c4.6,4.6,12,4.6,16.5,0c0,0,1.3-1.3,1.4-1.4c2.9-2.9,7.5-2.9,10.4,0c2.9,2.9,2.9,7.5,0,10.4L110.9,225.2L110.9,225.2z"/>
</svg>
