<?xml version="1.0" encoding="utf-8"?>
<!-- Generator: Adobe Illustrator 21.1.0, SVG Export Plug-In . SVG Version: 6.00 Build 0)  -->
<svg version="1.1" id="Layer_1" xmlns="http://www.w3.org/2000/svg" xmlns:xlink="http://www.w3.org/1999/xlink" x="0px" y="0px"
	 viewBox="0 0 985 264" style="enable-background:new 0 0 985 264;" xml:space="preserve">
<style type="text/css">
	.st0{fill:#5A5A5A;}
	.st1{fill-rule:evenodd;clip-rule:evenodd;fill:#C5332C;}
</style>
<g>
	<path class="st0" d="M101.8,124.3c-5-3.2-10-4.5-15.9-4.5c-13.8,0-22.2,10.8-22.2,31.2c0,19.6,7.7,30.4,20.2,30.4
		c2.9,0,5.5-0.4,8.3-1.7v-22.8H81.4v-11.3h23.3v42.7c-5.7,2.9-12.7,4.4-20.7,4.4c-21.9,0-34.5-14.9-34.5-41.4
		c0-27.1,13.6-42.9,35.8-42.9c6.3,0,12,1.2,17.2,3.3L101.8,124.3z"/>
	<path class="st0" d="M142.3,109.8v69.8h24.1v12H129v-81.8H142.3z"/>
</g>
<g>
	<path class="st0" d="M191.8,109.8v52.6c0,12.8,2.8,19.1,11.8,19.1c9.1,0,11.8-6.2,11.8-19.1v-52.6H228v50.9
		c0,21.6-7.6,32.1-24.7,32.1c-17.1,0-24.7-10.5-24.7-32.1v-50.9H191.8z"/>
	<path class="st0" d="M267.2,109.8l25.1,63.4v-63.4h11.6v81.8h-15.6l-24.9-63.2v63.2h-11.6v-81.8H267.2z"/>
</g>
<path class="st0" d="M369.2,109.8v12.7l-29.7,57.2h30.3v11.9h-44.6v-13.4l29.3-56.6h-28.2v-11.8H369.2z"/>
<path class="st0" d="M450.8,180.1c-3.9,7.7-12.7,7.9-21.1,7.9c-16.5,0-26.5-1.6-26.5-22.2c0-10.5,1.6-18.4,12.2-19.4
	c-4.3-4.1-5.4-6.4-5.4-12.6c0-15.9,7.3-18.1,20.6-18.1c16.2,0,19.8,3.2,19.8,22.3H440c0-9.7-0.3-11.1-9.3-11.1c-5.9,0-9.1,0.2-9.1,7
	c0,4.2,1.1,5.9,3.9,8.5l20.3,19.7v-9.6h10.5v4.8c0,4.5,0,9.2-1.3,13.4l9.1,8.9l-5.8,7.9L450.8,180.1z M421.8,152.7
	c-7,1.2-7.1,4.8-7.1,13c0,11.3,4.2,11,15,11c6.2,0,10.3,0,13.2-4.3L421.8,152.7z"/>
<path class="st0" d="M517.3,109.8v55.6c0,18-4.3,27.2-19,27.2c-3.1,0-6-0.5-9-1.5l0.5-12.3c1.7,0.7,3.6,1.2,5.7,1.2
	c7.3,0,8.4-5.3,8.4-16.3v-54H517.3z"/>
<g>
	<path class="st0" d="M581.2,109.8v11.3h-24.7V144h23.3v11.3h-23.3v25h25.9v11.3h-39.1v-81.8H581.2z"/>
	<path class="st0" d="M618.2,109.8l25.1,63.4v-63.4h11.6v81.8h-15.6l-24.9-63.2v63.2h-11.6v-81.8H618.2z"/>
	<path class="st0" d="M711.8,123.6c-5-2.4-9.2-3.4-12.8-3.4c-7.1,0-10.8,3.5-10.8,9.5c0,5.7,3.8,8.7,11.2,13.9
		c10.3,7.3,16.7,11.3,16.7,24.6c0,14.6-9.7,24.6-24,24.6c-5.9,0-11.9-1.4-16.7-3.9l1-12.6c5.1,3.2,10.1,4.8,15.1,4.8
		c7.2,0,11.4-4.2,11.4-10.5c0-8.3-4.9-10.7-13.8-17c-9.5-6.7-14.4-12.3-14.4-22.6c0-13.7,8.8-22.6,23.4-22.6c4.7,0,9.5,0.8,14.4,2.6
		L711.8,123.6z"/>
	<path class="st0" d="M773.9,109.8v11.3h-24.7V144h23.3v11.3h-23.3v25h25.9v11.3h-39.1v-81.8H773.9z"/>
	<path class="st0" d="M810.8,109.8l25.1,63.4v-63.4h11.6v81.8h-15.6L807,128.4v63.2h-11.6v-81.8H810.8z"/>
</g>
<path class="st1" d="M894.8,88.2h-28.3c-4.1,0-7.4-3.3-7.4-7.4c0-4.1,3.3-7.4,7.4-7.4h-0.1c0.2,0,2.1,0,2.1,0
	c6.5,0,11.7-5.2,11.7-11.7c0,0,0-1.9,0-1.9c0-4.1,3.3-7.4,7.4-7.4c4.1,0,7.4,3.3,7.4,7.4V88.2L894.8,88.2z"/>
<path class="st1" d="M894.8,94.5v28.3c0,4.1-3.3,7.4-7.4,7.4c-4.1,0-7.4-3.3-7.4-7.4v0.1c0-0.2,0-2.1,0-2.1
	c0-6.5-5.2-11.7-11.7-11.7c0,0-1.9,0-1.9,0c-4.1,0-7.4-3.3-7.4-7.4c0-4.1,3.3-7.4,7.4-7.4H894.8L894.8,94.5z"/>
<path class="st1" d="M901.1,94.5h28.3c4.1,0,7.4,3.3,7.4,7.4c0,4.1-3.3,7.4-7.4,7.4h0.1c-0.2,0-2.1,0-2.1,0
	c-6.5,0-11.7,5.2-11.7,11.7c0,0,0,1.9,0,1.9c0,4.1-3.3,7.4-7.3,7.4c-4.1,0-7.4-3.3-7.4-7.4V94.5L901.1,94.5z"/>
<path class="st1" d="M901.1,88.3V59.9c0-4.1,3.3-7.4,7.4-7.4c4.1,0,7.4,3.3,7.4,7.4v-0.1c0,0.2,0,2.1,0,2.1
	c0,6.5,5.2,11.7,11.7,11.7c0,0,1.9,0,1.9,0c4.1,0,7.4,3.3,7.4,7.4c0,4.1-3.3,7.4-7.4,7.4H901.1L901.1,88.3z"/>
</svg>
