<?xml version="1.0" encoding="utf-8"?>
<!-- Generator: Adobe Illustrator 21.1.0, SVG Export Plug-In . SVG Version: 6.00 Build 0)  -->
<svg version="1.1" id="Lag_1" xmlns="http://www.w3.org/2000/svg" xmlns:xlink="http://www.w3.org/1999/xlink" x="0px" y="0px"
	 viewBox="0 0 65 65" style="enable-background:new 0 0 65 65;" xml:space="preserve">
<style type="text/css">
	.st0{fill:#5A5A5A;}
</style>
<g>
	<path class="st0" d="M47.4,45.8l-8.7-8.7c-0.4-0.4-1-0.6-1.7-0.6c1.7-2.1,2.7-5,2.7-7.9c0-6.9-5.6-12.5-12.5-12.5
		c-6.9,0-12.5,5.6-12.5,12.5c0,6.8,5.6,12.5,12.5,12.5c2.9,0,5.8-1,7.9-2.9c0,0.6,0,1.2,0.6,1.7l8.7,8.7c0.4,0.4,1,0.6,1.5,0.6
		c0.4,0,1-0.2,1.5-0.6C48.2,47.9,48.2,46.7,47.4,45.8L47.4,45.8z M27.3,37.9c-5.2,0-9.3-4.1-9.3-9.3s4.2-9.3,9.3-9.3
		c5.2,0,9.3,4.2,9.3,9.3S32.4,37.9,27.3,37.9L27.3,37.9z M27.3,37.9"/>
</g>
</svg>
