<?xml version="1.0" encoding="utf-8"?>
<!-- Generator: Adobe Illustrator 21.1.0, SVG Export Plug-In . SVG Version: 6.00 Build 0)  -->
<svg version="1.1" id="Layer_1" xmlns="http://www.w3.org/2000/svg" xmlns:xlink="http://www.w3.org/1999/xlink" x="0px" y="0px"
	 viewBox="0 0 841.9 595.3" style="enable-background:new 0 0 841.9 595.3;" xml:space="preserve">
<style type="text/css">
	.st0{fill:#FFFFFF;}
</style>
<path class="st0" d="M696.7,332.1v-68.9L638,242.4c-6.9-20.7-13.8-41.5-24.3-62.2l27.7-55.3L593,76.6l-55.1,27.7
	c-17.4-10.4-38.1-20.8-62.2-24.3l-20.8-58.7H386L365.2,80c-20.7,6.9-41.5,13.9-58.7,24.3l-55.3-27.7l-51.8,51.8l27.7,55.3
	c-10.4,17.2-17.4,37.9-24.3,58.7l-58.7,20.8v68.9l58.7,20.8c7,20.7,13.9,41.5,24.3,62.2l-27.7,55.1l48.2,48.4L303,491
	c17.2,10.4,37.9,20.7,62.2,24.3l20.8,58.7h68.9l20.8-58.7c20.7-6.9,41.5-13.8,62.2-24.3l55.1,27.7l48.4-48.4l-27.7-55.1
	c10.4-17.4,20.7-38.1,24.3-62.2L696.7,332.1z M420.3,435.9c-75.8,0-138.1-62.3-138.1-138.3c0-75.8,62.3-138.1,138.1-138.1
	c76.1,0,138.3,62.3,138.3,138.1C558.6,373.6,496.4,435.9,420.3,435.9L420.3,435.9z M420.3,435.9"/>
<path class="st0" d="M506.8,297.6c0,47.7-38.6,86.3-86.3,86.3c-47.7,0-86.3-38.6-86.3-86.3c0-47.7,38.6-86.3,86.3-86.3
	C468.2,211.3,506.8,249.9,506.8,297.6L506.8,297.6z M506.8,297.6"/>
</svg>
