<?xml version="1.0" encoding="utf-8"?>
<!-- Generator: Adobe Illustrator 21.1.0, SVG Export Plug-In . SVG Version: 6.00 Build 0)  -->
<svg version="1.1" id="Layer_1" xmlns="http://www.w3.org/2000/svg" xmlns:xlink="http://www.w3.org/1999/xlink" x="0px" y="0px"
	 viewBox="0 0 841.9 595.3" style="enable-background:new 0 0 841.9 595.3;" xml:space="preserve">
<style type="text/css">
	.st0{fill:#FFFFFF;}
</style>
<g>
	<path class="st0" d="M452.6,298.9L439.5,312l13.1,13.1l-17.5,17.5l62.7,62.7c8.8,8.8,22,8.8,30.6,0c8.8-8.7,8.8-21.9,0-30.6
		L452.6,298.9z M509.5,398.2c-5.8,0-11.7-4.3-11.7-11.7c0-5.8,4.4-11.7,11.7-11.7c7.4,0,11.7,4.4,11.7,11.7
		C521.2,393.8,516.9,398.2,509.5,398.2L509.5,398.2z M509.5,398.2"/>
	<g>
		<path class="st0" d="M354.8,295.9l13.2-8.7l21.9-24.9l13.1,13.2l13.1-13.2l-1.4-1.4c2.9-7.3,4.3-14.6,4.3-23.4
			c0-32.1-26.2-58.4-58.4-58.4c-8.8,0-16,1.4-23.3,4.3l42.3,42.4l-30.6,30.6l-42.4-42.3c-2.9,7.3-4.3,14.5-4.3,23.3
			C302.2,268.2,325.6,291.6,354.8,295.9L354.8,295.9z M354.8,295.9"/>
		<path class="st0" d="M419,336.9l13.2-11.7L419,312l83.3-83.3l17.5-5.9l16-32.1l-10.3-10.3L492,195.2l-7.3,17.5L403,295.9
			l-13.1-13.1l-11.7,13.1c0,0,11.7,8.8-1.5,22c-7.3,7.3-19-1.5-40.8,20.4l-30.7,30.6c0,0-8.8,14.6,8.8,32.2
			c17.5,17.5,32.1,8.8,32.1,8.8l30.7-30.7c20.5-20.5,13.2-33.6,19-39.4C408.8,326.6,419,336.9,419,336.9L419,336.9z M373.8,331
			l10.2,10.2l-55.5,55.5l-10.3-10.3L373.8,331z M373.8,331"/>
	</g>
</g>
</svg>
