<?xml version="1.0" encoding="utf-8"?>
<!-- Generator: Adobe Illustrator 21.1.0, SVG Export Plug-In . SVG Version: 6.00 Build 0)  -->
<svg version="1.1" xmlns="http://www.w3.org/2000/svg" xmlns:xlink="http://www.w3.org/1999/xlink" x="0px" y="0px"
	 viewBox="0 0 50 50" style="enable-background:new 0 0 50 50;" xml:space="preserve">
<style type="text/css">
	.st0{display:none;}
	.st1{display:inline;}
	.st2{fill:#53B1EE;}
	.st3{fill:#FFFFFF;}
	.st4{display:inline;fill:#53B1EE;}
	.st5{display:inline;fill:#FFFFFF;}
</style>
<g id="FB-blue" class="st0">
	<g class="st1">
		<path class="st2" d="M33.2,14.2l-3.3,0c-2.6,0-3.1,1.2-3.1,3v4H33l0,6.3h-6.2v16.1h-6.5V27.5H15v-6.3h5.4v-4.6
			c0-5.4,3.3-8.3,8.1-8.3l4.8,0L33.2,14.2L33.2,14.2z M33.2,14.2"/>
	</g>
</g>
<g id="FB-white" class="st0">
	<g class="st1">
		<path class="st3" d="M33.2,14.2l-3.3,0c-2.6,0-3.1,1.2-3.1,3v4H33l0,6.3h-6.2v16.1h-6.5V27.5H15v-6.3h5.4v-4.6
			c0-5.4,3.3-8.3,8.1-8.3l4.8,0L33.2,14.2L33.2,14.2z M33.2,14.2"/>
	</g>
</g>
<g id="Twit-blue">
	<g>
		<path class="st2" d="M39,18c0,0.3,0,0.6,0,0.8c0,10.1-7.7,20.5-20.5,20.5c-3.9,0-7.7-1.1-11-3.2c-0.1,0-0.1-0.1-0.1-0.2
			c0-0.1,0.1-0.1,0.2-0.1c0.6,0.1,1.1,0.1,1.7,0.1c3,0,5.9-0.9,8.4-2.7c-2.9-0.2-5.4-2.2-6.3-5.1c0-0.1,0-0.1,0-0.2
			c0,0,0.1-0.1,0.2-0.1c0.8,0.2,1.6,0.2,2.4,0c-3-0.9-5.1-3.8-5.1-7v-0.1c0-0.1,0-0.1,0.1-0.1c0.1,0,0.1,0,0.2,0
			c0.8,0.4,1.7,0.7,2.6,0.8c-1.7-1.4-2.8-3.5-2.8-5.7c0-1.3,0.3-2.6,1-3.7C9.9,12,10,12,10,12c0.1,0,0.1,0,0.2,0.1
			c3.5,4.4,8.8,7,14.4,7.4c-0.1-0.5-0.1-1-0.1-1.4c0-4,3.3-7.3,7.3-7.3c2,0,3.9,0.8,5.3,2.2c1.5-0.3,3-0.9,4.4-1.7
			c0.1,0,0.1,0,0.2,0c0.1,0,0.1,0.1,0.1,0.2c-0.5,1.4-1.4,2.7-2.6,3.6c1.1-0.2,2.2-0.5,3.3-1c0.1,0,0.2,0,0.2,0c0,0.1,0.1,0.1,0,0.2
			C41.6,15.7,40.4,17,39,18L39,18z M39,18"/>
	</g>
</g>
<g id="Twit-hvid" class="st0">
	<g class="st1">
		<path class="st3" d="M39,18c0,0.3,0,0.6,0,0.8c0,10.1-7.7,20.5-20.5,20.5c-3.9,0-7.7-1.1-11-3.2c-0.1,0-0.1-0.1-0.1-0.2
			c0-0.1,0.1-0.1,0.2-0.1c0.6,0.1,1.1,0.1,1.7,0.1c3,0,5.9-0.9,8.4-2.7c-2.9-0.2-5.4-2.2-6.3-5.1c0-0.1,0-0.1,0-0.2
			c0,0,0.1-0.1,0.2-0.1c0.8,0.2,1.6,0.2,2.4,0c-3-0.9-5.1-3.8-5.1-7v-0.1c0-0.1,0-0.1,0.1-0.1c0.1,0,0.1,0,0.2,0
			c0.8,0.4,1.7,0.7,2.6,0.8c-1.7-1.4-2.8-3.5-2.8-5.7c0-1.3,0.3-2.6,1-3.7C9.9,12,10,12,10,12c0.1,0,0.1,0,0.2,0.1
			c3.5,4.4,8.8,7,14.4,7.4c-0.1-0.5-0.1-1-0.1-1.4c0-4,3.3-7.3,7.3-7.3c2,0,3.9,0.8,5.3,2.2c1.5-0.3,3-0.9,4.4-1.7
			c0.1,0,0.1,0,0.2,0c0.1,0,0.1,0.1,0.1,0.2c-0.5,1.4-1.4,2.7-2.6,3.6c1.1-0.2,2.2-0.5,3.3-1c0.1,0,0.2,0,0.2,0c0,0.1,0.1,0.1,0,0.2
			C41.6,15.7,40.4,17,39,18L39,18z M39,18"/>
	</g>
</g>
<g id="Linkedin-blue" class="st0">
	<g class="st1">
		<path class="st2" d="M14.5,43.2H7.4V20.2h7.2V43.2z M11,17c-2.3,0-4.2-1.9-4.2-4.2c0-2.3,1.9-4.2,4.2-4.2c2.3,0,4.2,1.9,4.2,4.2
			C15.1,15.2,13.3,17,11,17L11,17z M41.4,43.2h-7.2V32c0-2.7-0.1-6.1-3.7-6.1c-3.7,0-4.3,2.9-4.3,5.9v11.4H19V20.2h6.9v3.2H26
			c1-1.8,3.3-3.7,6.8-3.7c7.3,0,8.6,4.8,8.6,11V43.2z"/>
	</g>
</g>
<g id="Linkedin-white" class="st0">
	<g class="st1">
		<path class="st3" d="M14.5,43.2H7.4V20.2h7.2V43.2z M11,17c-2.3,0-4.2-1.9-4.2-4.2c0-2.3,1.9-4.2,4.2-4.2c2.3,0,4.2,1.9,4.2,4.2
			C15.1,15.2,13.3,17,11,17L11,17z M41.4,43.2h-7.2V32c0-2.7-0.1-6.1-3.7-6.1c-3.7,0-4.3,2.9-4.3,5.9v11.4H19V20.2h6.9v3.2H26
			c1-1.8,3.3-3.7,6.8-3.7c7.3,0,8.6,4.8,8.6,11V43.2z"/>
	</g>
</g>
<g id="Mail-blue" class="st0">
	<path class="st4" d="M14,22.5l-7.4-6.8v22.5c0,0,0,0,0,0L18.9,27L14,22.5z"/>
	<path class="st4" d="M26.9,30.8C26.9,30.9,26.9,30.9,26.9,30.8c-0.3,0.2-1.1,0.8-1.9,0.8c-0.8,0-1.6-0.6-1.9-0.7c0,0-0.1,0-0.1-0.1
		l-2.4-2.2L8.5,39.8h33L29.4,28.6L26.9,30.8z"/>
	<path class="st4" d="M21.4,26.1l3.2,2.9c0.1,0.1,0.3,0.2,0.4,0.2c0,0,0,0,0,0c0,0,0.1,0,0.1,0c0,0,0,0,0,0c0,0,0,0,0,0
		c0.1,0,0.2-0.1,0.3-0.2l3.2-2.9l9.9-9.1l3.1-2.8h-33l4.9,4.5L21.4,26.1z"/>
	<path class="st4" d="M31.1,27l12.3,11.3c0,0,0,0,0,0V15.7L36,22.5L31.1,27z"/>
</g>
<g id="Mail-white" class="st0">
	<path class="st5" d="M14,22.5l-7.4-6.8v22.5c0,0,0,0,0,0L18.9,27L14,22.5z"/>
	<path class="st5" d="M26.9,30.8C26.9,30.9,26.9,30.9,26.9,30.8c-0.3,0.2-1.1,0.8-1.9,0.8c-0.8,0-1.6-0.6-1.9-0.7c0,0-0.1,0-0.1-0.1
		l-2.4-2.2L8.5,39.8h33L29.4,28.6L26.9,30.8z"/>
	<path class="st5" d="M21.4,26.1l3.2,2.9c0.1,0.1,0.3,0.2,0.4,0.2c0,0,0,0,0,0c0,0,0.1,0,0.1,0c0,0,0,0,0,0c0,0,0,0,0,0
		c0.1,0,0.2-0.1,0.3-0.2l3.2-2.9l9.9-9.1l3.1-2.8h-33l4.9,4.5L21.4,26.1z"/>
	<path class="st5" d="M31.1,27l12.3,11.3c0,0,0,0,0,0V15.7L36,22.5L31.1,27z"/>
</g>
</svg>
