<?xml version="1.0" encoding="utf-8"?>
<!-- Generator: Adobe Illustrator 21.1.0, SVG Export Plug-In . SVG Version: 6.00 Build 0)  -->
<svg version="1.1" id="Lag_1" xmlns="http://www.w3.org/2000/svg" xmlns:xlink="http://www.w3.org/1999/xlink" x="0px" y="0px"
	 viewBox="0 0 30 30" style="enable-background:new 0 0 30 30;" xml:space="preserve">
<style type="text/css">
	.st0{fill:#FFFFFF;}
</style>
<path class="st0" d="M11.4,17.8c-0.9,0.4-1.7,0.8-2.5,1.1C8,19.3,7.2,19.6,6.3,20c-1.4,0.6-2.5,1.7-3.2,3.1c-0.6,1.2-1,2.5-0.9,3.9
	c0,0.5,0.2,0.8,0.7,1c0.3,0.1,0.6,0.2,0.9,0.3c2.8,0.5,5.7,0.9,8.5,1.1c2.8,0.2,5.6,0.1,8.3-0.3c1.6-0.2,3.2-0.4,4.8-0.7
	c0.6-0.1,1.1-0.2,1.7-0.4c0.5-0.2,0.8-0.6,0.7-1.1c0-0.5,0-0.9-0.1-1.4c-0.5-2.4-1.6-4.3-3.8-5.4c-0.7-0.4-1.5-0.7-2.2-1
	c-1-0.5-2-0.9-3.1-1.4C16.6,19.8,13.6,20.1,11.4,17.8z"/>
<path class="st0" d="M20.4,8.7c0-0.3,0-0.6,0-0.9c0-0.8,0-1.6-0.1-2.4c-0.3-1.9-1.4-3.2-3.3-3.7c-1.1-0.3-2.2-0.3-3.3-0.2
	c-2.3,0.3-3.9,2.1-4,4.4c-0.1,0.9,0,1.7-0.1,2.6c0,0.1,0,0.2-0.1,0.2C9,8.9,9,9.2,9,9.6c-0.1,1.5,0.5,2.7,1.4,3.8
	c0.1,0.1,0.2,0.2,0.2,0.3c0.3,0.9,0.7,1.7,1.4,2.4c1.8,1.8,4.2,1.9,6,0c0.6-0.6,1-1.4,1.3-2.3c0.1-0.2,0.2-0.4,0.3-0.5
	c0.9-1.1,1.5-2.3,1.3-3.8C20.9,9.1,20.8,8.8,20.4,8.7z"/>
</svg>
