<?xml version="1.0" encoding="utf-8"?>
<!-- Generator: Adobe Illustrator 21.1.0, SVG Export Plug-In . SVG Version: 6.00 Build 0)  -->
<svg version="1.1" id="Layer_1" xmlns="http://www.w3.org/2000/svg" xmlns:xlink="http://www.w3.org/1999/xlink" x="0px" y="0px"
	 viewBox="0 0 353.8 151.3" style="enable-background:new 0 0 353.8 151.3;" xml:space="preserve">
<style type="text/css">
	.st0{fill:#63AEEB;}
	.st1{fill:#FFFFFF;}
	.st2{fill:#E9F7FD;}
	.st3{fill:#60C7F3;}
	.st4{fill:#58BAF1;}
	.st5{fill:#53B1EE;}
	.st6{fill:#CFEDFB;}
	.st7{fill:#A2E1F8;}
	.st8{fill:#6ED3F8;}
</style>
<path class="st0" d="M133.6,92.9h6.9l-14.1,16.9l15.3,20.9h-7.3l-13-19h-0.1v19h-5.9V75.2h5.9v32.9L133.6,92.9z"/>
<path class="st1" d="M156,99.9c0-2.3-0.2-4.7-0.3-7h5.7l0.2,5.5h0.1c1.5-3,4.2-6.1,9.4-6.1c7.4,0,12.4,6.4,12.4,19.4
	s-5,19.4-12.4,19.4c-4.1,0-6.7-1.7-9.1-5.7h-0.1v21.2H156V99.9L156,99.9z M169.7,126.2c5.4,0,7.9-4.9,7.9-14.4s-2.5-14.4-7.9-14.4
	s-7.9,4.9-7.9,14.4S164.3,126.2,169.7,126.2z"/>
<path class="st1" d="M202.7,92.4c9.5,0,14.4,7.5,14.4,19.4c0,11.8-4.9,19.4-14.4,19.4s-14.4-7.5-14.4-19.4
	C188.3,100,193.2,92.4,202.7,92.4z M202.7,126.2c5.6,0,8.2-4.9,8.2-14.4s-2.6-14.4-8.2-14.4s-8.2,4.9-8.2,14.4
	S197.1,126.2,202.7,126.2z"/>
<path class="st1" d="M222,123.4c2.7,1.7,5.5,2.8,8.4,2.8c4.5,0,6.8-2.4,6.8-5.3c0-2.6-1.3-4.4-4.6-5.9l-3.9-1.8
	c-5.1-2.4-7-4.9-7-9.7c0-6.2,4.6-11,11.5-11c3,0,5.6,0.5,7.6,1.3l-0.3,5.3c-1.8-0.9-4.4-1.6-7-1.6c-3.9,0-5.9,2.2-5.9,5.2
	s2.1,4.7,6,6.4l2.1,0.9c4.4,1.9,7.1,5,7.1,9.6c0,6.5-3.3,11.7-11.5,11.7c-3.7,0-7.1-0.8-9.7-2.2L222,123.4z"/>
<path class="st1" d="M249.7,92.9h5.9v37.7h-5.9V92.9z"/>
<path class="st1" d="M280.2,130.2c-1.4,0.5-3.4,1-5,1c-5.4,0-8.3-2.3-8.3-9V98h-5.7v-5h5.7v-7.7l5.9-1.8V93h7.4v5h-7.4v22.3
	c0,4.3,1.1,5.9,3.7,5.9c1.5,0,2.5-0.4,3.7-1L280.2,130.2L280.2,130.2z"/>
<path class="st1" d="M286.2,92.9h5.9v37.7h-5.9V92.9z"/>
<path class="st1" d="M297.3,92.9h6.5l7.9,31.5h0.1l8-31.5h6.2l-10.8,37.7h-7L297.3,92.9z"/>
<path class="st1" d="M333.6,113.7c0,8.7,3.2,12.8,9.8,12.8c3,0,6.2-1.6,8.2-3.1l0.3,5.6c-2.8,1.4-6.5,2.2-10.1,2.2
	c-9.5,0-14.4-7.5-14.4-19.4c0-11.8,4.9-19.4,13.8-19.4c8.1,0,12.6,6.8,12.6,17.9v3.3h-20.2V113.7z M348,108.9c0-7.8-2.3-11.8-7-11.8
	c-3.8,0-7.2,3-7.3,11.8H348z"/>
<path class="st0" d="M100.8,98.9L100.8,98.9l-0.3-5.9h-5.7c0.1,2.7,0.3,5.4,0.3,8.1v9.8h-7c-0.5-9.7-8.4-17.5-18.3-18V83h-2v9.8
	c-9.9,0.5-17.8,8.3-18.3,18h-7.2l4.4-17.9h-5.9l-6.7,31.5H34l-7.1-31.5h-7l-6.8,31.5H13L6.2,92.9H0l9.5,37.7h6.7l6.9-31.9h0.1
	l7.4,32h6.7l4.4-17.8h7.7c0.6,9.6,8.5,17.4,18.3,17.9v10h2v-10c9.8-0.5,17.7-8.2,18.3-17.9h7v17.8h5.9v-20c0-8.2,3.2-12.4,7.8-12.4
	c0.8,0,1.5,0.1,2.2,0.2v-6.1C105.8,92.4,102.7,94.3,100.8,98.9z M67.8,125.7c-7.1-0.5-12.8-6-13.3-12.9h13.3V125.7z M67.8,110.8
	H54.5c0.5-7,6.2-12.6,13.3-13C67.8,97.8,67.8,110.8,67.8,110.8z M69.8,125.7v-12.9h13.3C82.6,119.7,76.9,125.2,69.8,125.7z
	 M69.8,110.8v-13c7.1,0.5,12.8,6.1,13.3,13H69.8z"/>
<g>
	<rect id="Rectangle_2_copy_6" x="303.3" class="st2" width="50.5" height="24"/>
</g>
<rect id="Rectangle_2_copy_2_1_" x="101.1" class="st3" width="50.5" height="24"/>
<rect id="Rectangle_2_copy_1_" x="50.5" class="st4" width="50.5" height="24"/>
<rect class="st5" width="50.5" height="24"/>
<rect id="Rectangle_2_copy_5_1_" x="252.7" class="st6" width="50.5" height="24"/>
<rect id="Rectangle_2_copy_4_1_" x="202.2" class="st7" width="50.5" height="24"/>
<rect id="Rectangle_2_copy_3_1_" x="151.6" class="st8" width="50.5" height="24"/>
</svg>
