<?xml version="1.0" encoding="utf-8"?>
<!-- Generator: Adobe Illustrator 16.0.0, SVG Export Plug-In . SVG Version: 6.00 Build 0)  -->
<!DOCTYPE svg PUBLIC "-//W3C//DTD SVG 1.1//EN" "http://www.w3.org/Graphics/SVG/1.1/DTD/svg11.dtd">
<svg version="1.1" id="Layer_1" xmlns="http://www.w3.org/2000/svg" xmlns:xlink="http://www.w3.org/1999/xlink" x="0px" y="0px"
	 viewBox="0 -23.77 350.23 351" enable-background="new 0 -23.77 350.23 351" xml:space="preserve"
	>
<g id="MICROFLEX" display="none">
	<path display="inline" fill="#5A5A5A" d="M151.029,232.703h-0.041l-3.65,13.643h-1.898l-3.483-13.643h-0.04v13.643h-2.42v-16.36
		h3.984l3.003,12.212h0.041l3.065-12.212h3.859v16.36h-2.421L151.029,232.703L151.029,232.703z"/>
	<path display="inline" fill="#5A5A5A" d="M158.367,229.983h2.67v16.361h-2.67V229.983z"/>
	<path display="inline" fill="#5A5A5A" d="M174.908,245.992c-0.541,0.327-1.835,0.586-3.147,0.586c-4.425,0-6.696-3.634-6.696-8.416
		c0-4.779,2.273-8.412,6.611-8.412c1.48,0,2.693,0.444,3.234,0.68l-0.146,2.693c-0.543-0.304-1.396-0.89-2.754-0.89
		c-2.212,0-4.107,1.688-4.107,5.931c0,4.243,1.897,5.932,4.107,5.932c1.294,0,2.147-0.352,2.754-0.846L174.908,245.992z"/>
	<path display="inline" fill="#5A5A5A" d="M179.13,229.983h4.547c2.588,0,4.34,1.312,4.34,4.312c0,2.136-1.191,3.563-2.816,3.846
		v0.07c0.543,0.095,1.146,0.375,1.605,1.898l1.896,6.235h-2.836l-1.438-5.321c-0.354-1.29-1.046-1.711-2.023-1.711H181.8v7.031
		h-2.67V229.983L179.13,229.983z M182.884,237.108c1.42,0,2.379-0.819,2.379-2.483c0-1.877-0.877-2.345-2.379-2.345H181.8v4.828
		H182.884L182.884,237.108z"/>
	<path display="inline" fill="#5A5A5A" d="M197.309,229.75c3.024,0,5.798,2.53,5.798,8.412c0,5.885-2.773,8.416-5.798,8.416
		c-3.026,0-5.799-2.531-5.799-8.416C191.509,232.28,194.283,229.75,197.309,229.75z M197.309,244.279
		c1.69,0,3.044-1.615,3.044-6.117c0-4.498-1.354-6.117-3.044-6.117s-3.045,1.619-3.045,6.117
		C194.263,242.664,195.619,244.279,197.309,244.279z"/>
	<path display="inline" fill="#5A5A5A" d="M207.292,229.983h7.362v2.39h-4.692v4.455h4.483v2.392h-4.483v7.125h-2.67V229.983
		L207.292,229.983z"/>
	<path display="inline" fill="#5A5A5A" d="M218.916,229.983h2.668v13.972h4.799v2.391h-7.467V229.983z"/>
	<path display="inline" fill="#5A5A5A" d="M230.001,229.983h7.653v2.39h-4.985v4.36h4.717v2.392h-4.717v4.828h5.193v2.392h-7.861
		V229.983L230.001,229.983L230.001,229.983z"/>
	<path display="inline" fill="#5A5A5A" d="M247.216,240.25l-3.026,6.095h-2.942l4.342-8.675l-3.817-7.688h3.065l2.295,5.273
		l2.689-5.273h2.858l-3.923,7.688l4.215,8.675h-3.045L247.216,240.25z"/>
</g>
<g id="OFFSET" display="none">
	<path display="inline" fill="#5B5A5A" d="M226.068,232.778c-0.973-0.46-1.801-0.668-2.504-0.668c-1.389,0-2.113,0.688-2.113,1.862
		c0,1.104,0.744,1.701,2.195,2.715c2.008,1.425,3.25,2.208,3.25,4.809c0,2.854-1.885,4.809-4.68,4.809
		c-1.16,0-2.32-0.276-3.25-0.762l0.186-2.461c0.994,0.621,1.969,0.942,2.941,0.942c1.408,0,2.215-0.828,2.215-2.047
		c0-1.61-0.951-2.095-2.689-3.313c-1.865-1.312-2.818-2.392-2.818-4.416c0-2.67,1.721-4.418,4.576-4.418
		c0.912,0,1.863,0.162,2.816,0.506L226.068,232.778z"/>
	<path display="inline" fill="#5B5A5A" d="M186.742,229.832c2.985,0,5.729,2.5,5.729,8.313s-2.742,8.313-5.729,8.313
		c-2.988,0-5.729-2.5-5.729-8.313S183.751,229.832,186.742,229.832z M186.742,244.19c1.668,0,3.008-1.597,3.008-6.043
		s-1.34-6.045-3.008-6.045c-1.671,0-3.011,1.599-3.011,6.045C183.732,242.593,185.071,244.19,186.742,244.19z"/>
	<path display="inline" fill="#5B5A5A" d="M196.603,230.064h7.273v2.361h-4.639v4.4h4.432v2.36h-4.432v7.04H196.6v-16.163
		L196.603,230.064L196.603,230.064z"/>
	<path display="inline" fill="#5B5A5A" d="M208.191,230.064h7.275v2.361h-4.637v4.4h4.43v2.36h-4.43v7.04h-2.641L208.191,230.064
		L208.191,230.064z"/>
	<path display="inline" fill="#5B5A5A" d="M230.902,230.064h7.562v2.361h-4.924v4.308h4.654v2.362h-4.654v4.771h5.131v2.362H230.9
		L230.902,230.064L230.902,230.064z"/>
	<g display="inline">
		<path fill="#5B5A5A" d="M245.957,246.032v-13.575h-3.826v-2.687h10.416v2.687h-3.823v13.573h-2.767V246.032L245.957,246.032z"/>
	</g>
</g>
<g id="iCTP" display="none">
	<path display="inline" fill="#C83228" d="M15.156,244.767c0,1.711,0.854,2.679,2.192,2.679c1.707,0,4.508-3.044,9.257-8.644
		l1.706,1.582c-6.942,9.012-12.18,13.639-18.026,13.639c-3.779,0-5.848-2.189-5.848-5.846c0-1.699,0.488-4.631,1.706-7.914
		l15.59-41.729c1.095-2.804,1.339-4.873,1.339-5.361c0-1.461-1.097-2.678-2.433-2.678c-2.927,0-6.338,4.264-12.062,12.055
		l-1.827-1.459c7.188-11.207,13.643-16.684,19.121-16.684c4.75,0,7.064,2.434,7.064,7.184c0,3.287-1.22,7.306-3.171,12.422
		L16.25,240.017C15.523,241.964,15.156,243.546,15.156,244.767z"/>
	<path display="inline" fill="#5A5A5A" d="M92.518,209.593h8.435v8.504h-8.435v14.004c0,5.021,1.408,6.964,5.492,6.964
		c0.67,0,1.605-0.2,2.943-0.537l0.201,7.702c-2.61,0.602-4.955,0.864-7.166,0.864c-9.506,0-13.254-4.485-13.254-14.657v-14.34
		h-6.629v-8.503h7.298v-9.903h11.113v9.903L92.518,209.593L92.518,209.593z"/>
	<path display="inline" fill="#5A5A5A" d="M124.713,199.69c12.856,0,19.085,4.622,19.085,14.8c0,10.045-6.229,15.471-18.012,15.471
		h-5.288v16.201H108.11V199.69H124.713z M120.498,221.587h3.279c4.956,0,7.5-2.209,7.5-6.496c0-4.551-2.546-7.028-7.434-7.028
		h-3.348v13.524H120.498z"/>
	<g display="inline">
		<path fill="#5A5A5A" d="M62.037,237.655c-9.31,0-15.402-5.823-15.402-14.997c0-9.102,5.892-14.929,15.201-14.929
			c3.056,0,5.918,0.621,8.618,1.806v-9.646c-3.201-0.876-6.773-1.335-10.63-1.335c-16.001,0-25.843,9.443-25.843,24.104
			c0,15.401,9.841,24.573,26.779,24.573c4.407,0,8.69-0.58,12.964-1.71l-1.728-9.938C68.553,236.978,65.215,237.655,62.037,237.655z
			"/>
	</g>
	<g display="inline">
		<path fill="#5A5A5A" d="M149.142,200.357h-1.984v-0.667h4.762v0.667h-1.982v5.287h-0.793L149.142,200.357L149.142,200.357z"/>
		<path fill="#5A5A5A" d="M152.593,199.69h1.086l1.875,5.003l1.886-5.003h1.083v5.953h-0.751v-4.952h-0.019l-1.859,4.952h-0.672
			l-1.858-4.952h-0.017v4.952h-0.752v-5.953H152.593z"/>
	</g>
	<ellipse display="inline" fill="#C83228" cx="44.119" cy="147.229" rx="6.17" ry="5.901"/>
	<ellipse display="inline" fill="#C83228" cx="36.569" cy="167.909" rx="6.172" ry="5.902"/>
</g>
<g id="DEGRAF" display="none">
	<path display="inline" fill="#5B5A5A" d="M175.083,229.985h3.791c4.547,0,6.963,2.763,6.963,8.175c0,5.504-2.918,8.176-6.963,8.176
		h-3.791V229.985z M177.75,244.037h0.897c3.001,0,4.358-2.295,4.358-5.879c0-3.585-1.357-5.879-4.358-5.879h-0.897V244.037z"/>
	<path display="inline" fill="#5B5A5A" d="M190.149,229.985h7.649v2.388h-4.98v4.358h4.709v2.39h-4.709v4.822h5.188v2.391h-7.854
		L190.149,229.985L190.149,229.985z"/>
	<path display="inline" fill="#5B5A5A" d="M208.093,237.175h4.713v8.549c-0.75,0.445-2.043,0.844-3.939,0.844
		c-4.669,0-7.147-3.562-7.147-8.406c0-4.851,2.479-8.41,7.147-8.41c1.666,0,2.98,0.422,3.543,0.703l-0.145,2.694
		c-0.854-0.587-2.023-1.007-3.357-1.007c-2.834,0-4.354,2.622-4.354,6.02c0,3.678,1.479,6.021,4.212,6.021
		c0.622,0,1.188-0.143,1.541-0.305v-4.402h-2.212L208.093,237.175L208.093,237.175z"/>
	<path display="inline" fill="#5B5A5A" d="M217.214,229.985h4.543c2.587,0,4.338,1.312,4.338,4.308c0,2.133-1.191,3.562-2.816,3.845
		v0.067c0.542,0.096,1.146,0.375,1.606,1.897l1.896,6.231h-2.835l-1.438-5.315c-0.353-1.291-1.041-1.711-2.021-1.711h-0.606v7.026
		h-2.666V229.985L217.214,229.985z M220.966,237.103c1.42,0,2.377-0.818,2.377-2.48c0-1.875-0.877-2.343-2.377-2.343h-1.086v4.823
		H220.966L220.966,237.103z"/>
	<path display="inline" fill="#5B5A5A" d="M238.087,242.397h-5.002l-1.045,3.937h-2.666l4.877-16.349h2.918l4.689,16.349h-2.753
		L238.087,242.397z M237.525,240.102l-1.833-7.636h-0.042l-2.003,7.636H237.525z"/>
	<path display="inline" fill="#5B5A5A" d="M245.19,229.985h7.356v2.388h-4.688v4.45h4.688v2.39h-4.688v7.121h-2.669L245.19,229.985
		L245.19,229.985z"/>
</g>
<path fill="#009DE0" d="M168.35,141.343c4.429,0,8.019-3.587,8.019-8.019s-3.59-8.02-8.019-8.02c-4.432,0-8.02,3.591-8.02,8.02
	C160.331,137.756,163.918,141.343,168.35,141.343"/>
<g>
	<path fill="#56565A" d="M136.33,133.968c0-2.482,0.291-4.894,0.824-7.21H86.126v0.027h-2.209v14.581h20.054v40.633
		c-2.432,1.316-4.907,2.288-7.427,2.917c-2.522,0.628-5.11,0.941-7.764,0.941c-11.658,0-20.965-4.718-27.918-14.158
		c-6.955-9.436-10.432-22.054-10.432-37.858c0-16.051,3.477-28.953,10.432-38.705c6.954-9.749,16.214-14.626,27.783-14.626
		c4.185,0,8.281,0.646,12.288,1.928c4.006,1.286,7.831,3.214,11.478,5.787l1.957-15.803c-4.366-2.193-8.755-3.824-13.166-4.891
		c-4.412-1.063-8.845-1.6-13.3-1.6c-15.755,0-28.279,6.116-37.575,18.342c-8.261,10.869-12.841,25.036-13.761,42.485H7.978v14.449
		h28.636c1.029,17.076,5.554,30.88,13.579,41.406c9.204,12.069,21.683,18.104,37.438,18.104c5.356,0,10.477-0.581,15.361-1.74
		c4.883-1.16,9.553-2.898,14.011-5.22v-52.55h20.159C136.623,138.88,136.33,136.459,136.33,133.968z"/>
	<path fill="#56565A" d="M196.714,119.136l39.33-52.639h-17.429l-30.756,42.101C191.522,111.419,194.553,115.011,196.714,119.136z"
		/>
	<path fill="#56565A" d="M168.344,101.954c2.546,0,5.021,0.307,7.396,0.868V66.497h-14.51v36.259
		C163.519,102.236,165.899,101.954,168.344,101.954z"/>
	<path fill="#56565A" d="M168.344,165.982c-2.445,0-4.825-0.285-7.113-0.806v34.975h14.51v-35.039
		C173.366,165.677,170.89,165.982,168.344,165.982z"/>
	<path fill="#56565A" d="M342.09,126.758h-48.66c-1.972-1.557-4.093-3.145-6.38-4.77c-7.875-5.58-13.003-10.064-15.387-13.448
		c-2.382-3.388-3.571-7.15-3.571-11.288c0-5.268,1.762-9.408,5.284-12.418c3.523-3.008,8.424-4.514,14.693-4.514
		c3.693,0,7.23,0.502,10.61,1.505c3.377,1.004,6.672,2.508,9.881,4.513l1.458-16.365c-3.399-1.505-6.951-2.635-10.646-3.387
		s-7.508-1.128-11.445-1.128c-10.598,0-18.973,3.058-25.118,9.171c-6.152,6.115-9.227,14.378-9.227,24.785
		c0,6.271,1.579,12.385,4.74,18.342c1.739,3.28,3.854,6.272,6.313,9.002h-65.101c0.535,2.317,0.827,4.729,0.827,7.21
		c0,2.491-0.295,4.909-0.832,7.238h82.742c10.959,9.061,16.445,17.487,16.445,25.273c0,5.771-1.847,10.407-5.54,13.921
		c-3.696,3.512-8.581,5.269-14.659,5.269c-3.791,0-7.681-0.689-11.664-2.068c-3.985-1.376-8.121-3.51-12.396-6.399l-1.457,17.969
		c3.888,1.945,8.067,3.419,12.54,4.42c4.475,1.005,9.16,1.506,14.075,1.506c10.106,0,18.386-3.636,24.826-10.911
		c6.44-7.276,9.664-16.585,9.664-27.935c0-7.652-1.946-14.455-5.834-20.413c-0.137-0.207-0.286-0.418-0.432-0.629h34.252
		L342.09,126.758L342.09,126.758z"/>
	<path fill="#56565A" d="M188.356,158.948l29.233,41.205h18.666l-39.534-51.368C194.656,152.728,191.799,156.186,188.356,158.948z"
		/>
</g>
<line fill="none" stroke="#56565A" stroke-width="2.7982" stroke-miterlimit="10" x1="7.978" y1="221.368" x2="342.09" y2="221.368"/>
<path fill="#56565A" d="M14.123,231.622h2.623l6.036,19.245h-2.33l-1.484-4.945h-7.326l-1.485,4.945H7.978L14.123,231.622z
	 M15.392,233.978l-3.059,9.79h6.017L15.392,233.978z"/>
<path fill="#56565A" d="M45.375,232.474l-0.309,2.274c-0.574-0.372-1.18-0.646-1.812-0.832c-0.633-0.185-1.278-0.279-1.939-0.279
	c-1.826,0-3.286,0.7-4.383,2.104c-1.098,1.404-1.646,3.263-1.646,5.575c0,2.275,0.548,4.093,1.646,5.451
	c1.097,1.36,2.564,2.039,4.403,2.039c0.418,0,0.829-0.044,1.225-0.134c0.398-0.091,0.79-0.232,1.171-0.421v-5.851H40.57v-2.101h5.22
	v9.642c-0.703,0.336-1.44,0.589-2.211,0.752c-0.77,0.168-1.578,0.251-2.423,0.251c-2.486,0-4.453-0.87-5.905-2.609
	c-1.452-1.738-2.179-4.096-2.179-7.078c0-2.958,0.732-5.322,2.2-7.083c1.466-1.76,3.442-2.641,5.927-2.641
	c0.702,0,1.401,0.077,2.099,0.231C43.994,231.925,44.686,232.161,45.375,232.474z"/>
<path fill="#56565A" d="M51.061,231.622h2.319v16.998h6.607v2.249h-8.927V231.622z"/>
<path fill="#56565A" d="M62.741,231.815h2.133v11.335c0,2.06,0.298,3.582,0.894,4.572c0.595,0.987,1.505,1.482,2.724,1.482
	c1.234,0,2.165-0.531,2.789-1.592c0.625-1.062,0.937-2.631,0.937-4.706v-11.09h1.994v11.144c0,2.82-0.481,4.932-1.444,6.348
	c-0.961,1.414-2.407,2.118-4.34,2.118c-1.867,0-3.281-0.689-4.243-2.07c-0.961-1.382-1.444-3.422-1.444-6.123L62.741,231.815
	L62.741,231.815z"/>
<path fill="#56565A" d="M79.766,231.622h2.727l6.741,14.98c0.095,0.216,0.209,0.546,0.343,0.993c0.133,0.445,0.274,0.974,0.42,1.579
	c-0.096-0.702-0.167-1.338-0.219-1.902c-0.051-0.563-0.076-1.051-0.076-1.457v-14.193h1.997v19.245h-2.661l-6.86-15.115
	c-0.087-0.183-0.193-0.486-0.316-0.915c-0.124-0.43-0.262-0.985-0.415-1.673c0.109,1.028,0.187,1.825,0.234,2.384
	c0.047,0.557,0.071,0.961,0.071,1.205v14.114h-1.984L79.766,231.622L79.766,231.622z"/>
<path fill="#56565A" d="M96.834,231.622h9.993v2.382l-7.999,14.642h8.128v2.222h-10.36v-2.52l7.944-14.574h-7.708L96.834,231.622
	L96.834,231.622z"/>
<path fill="#56565A" d="M139.985,231.608h2.374v12.784c0,2.276-0.355,3.95-1.063,5.02c-0.708,1.069-1.822,1.604-3.341,1.604
	c-0.346,0-0.692-0.021-1.039-0.068c-0.346-0.043-0.684-0.114-1.015-0.201v-2.385c0.251,0.109,0.496,0.189,0.731,0.246
	c0.235,0.054,0.485,0.076,0.744,0.076c0.922,0,1.587-0.378,1.997-1.129c0.41-0.753,0.613-2.001,0.613-3.745V231.608L139.985,231.608
	z"/>
<path fill="#56565A" d="M148.352,231.608h8.57v2.073h-6.354v6.109h6.007v2.163h-6.007v6.679h6.566v2.219h-8.782V231.608
	L148.352,231.608z"/>
<path fill="#56565A" d="M162.071,231.484h2.709l6.697,14.979c0.095,0.218,0.208,0.547,0.342,0.997
	c0.133,0.447,0.272,0.971,0.416,1.579c-0.094-0.705-0.167-1.34-0.217-1.904c-0.051-0.563-0.076-1.05-0.076-1.456v-14.194h1.983
	v19.248h-2.646l-6.817-15.119c-0.087-0.183-0.191-0.486-0.313-0.912c-0.125-0.431-0.261-0.985-0.414-1.674
	c0.108,1.026,0.186,1.824,0.234,2.382c0.047,0.56,0.07,0.961,0.07,1.209v14.111h-1.972L162.071,231.484L162.071,231.484z"/>
<path fill="#56565A" d="M187.313,231.984l-0.218,2.358c-0.479-0.288-0.968-0.505-1.469-0.65c-0.502-0.14-1.029-0.217-1.579-0.217
	c-0.932,0-1.66,0.217-2.184,0.648c-0.524,0.437-0.784,1.03-0.784,1.79c0,0.597,0.177,1.137,0.53,1.625
	c0.353,0.49,1.116,1.134,2.288,1.938c1.524,1.049,2.573,1.999,3.152,2.859c0.579,0.856,0.866,1.838,0.866,2.937
	c0,1.635-0.479,2.978-1.436,4.021c-0.959,1.05-2.188,1.573-3.69,1.573c-0.729,0-1.427-0.074-2.091-0.22
	c-0.665-0.141-1.285-0.354-1.866-0.636l0.219-2.586c0.638,0.416,1.251,0.723,1.842,0.922c0.593,0.196,1.171,0.297,1.733,0.297
	c0.904,0,1.632-0.254,2.177-0.759c0.55-0.505,0.825-1.172,0.825-2.004c0-1.289-1.081-2.703-3.241-4.237
	c-0.36-0.253-0.635-0.452-0.822-0.597c-0.825-0.598-1.472-1.323-1.94-2.181c-0.47-0.857-0.704-1.738-0.704-2.641
	c0-1.499,0.455-2.689,1.372-3.569s2.155-1.321,3.732-1.321c0.586,0,1.154,0.055,1.7,0.164
	C186.28,231.606,186.806,231.768,187.313,231.984z"/>
<path fill="#56565A" d="M192.731,231.691h8.679v2.072h-6.433v6.107h6.085v2.167h-6.085v6.675h6.649v2.222h-8.896V231.691
	L192.731,231.691z"/>
<path fill="#56565A" d="M206.594,231.608h2.713l6.694,14.98c0.097,0.217,0.208,0.545,0.342,0.995
	c0.134,0.443,0.275,0.973,0.419,1.579c-0.095-0.706-0.169-1.341-0.22-1.905c-0.051-0.562-0.077-1.05-0.077-1.455v-14.194h1.985
	v19.245h-2.644l-6.816-15.113c-0.087-0.183-0.19-0.488-0.316-0.917c-0.125-0.429-0.26-0.985-0.411-1.672
	c0.108,1.028,0.188,1.824,0.234,2.384c0.046,0.56,0.07,0.96,0.07,1.206v14.112h-1.974V231.608L206.594,231.608z"/>
<path fill="#56565A" d="M243.134,232.297l-0.086,2.329c-0.596-0.307-1.174-0.535-1.739-0.69c-0.566-0.153-1.144-0.23-1.731-0.23
	c-1.848,0-3.318,0.676-4.404,2.026c-1.087,1.351-1.633,3.17-1.633,5.462c0,2.324,0.543,4.146,1.626,5.474
	c1.084,1.327,2.563,1.991,4.435,1.991c0.594,0,1.169-0.071,1.736-0.209c0.561-0.142,1.118-0.345,1.67-0.618l0.065,2.415
	c-0.537,0.216-1.105,0.383-1.715,0.492c-0.605,0.112-1.249,0.171-1.929,0.171c-2.519,0-4.512-0.858-5.966-2.569
	c-1.457-1.711-2.185-4.042-2.185-6.995c0-2.985,0.743-5.366,2.228-7.137c1.481-1.77,3.48-2.655,5.99-2.655
	c0.672,0,1.312,0.062,1.922,0.184C242.025,231.856,242.596,232.046,243.134,232.297z"/>
<path fill="#56565A" d="M252.572,231.243c2.153,0,3.854,0.891,5.104,2.674c1.256,1.784,1.881,4.22,1.881,7.305
	c0,3.097-0.623,5.537-1.871,7.32c-1.253,1.786-2.955,2.675-5.112,2.675c-2.152,0-3.856-0.891-5.11-2.675
	c-1.259-1.783-1.889-4.224-1.889-7.32c0-3.088,0.63-5.525,1.889-7.305C248.715,232.132,250.419,231.243,252.572,231.243z
	 M252.572,233.381c-1.438,0-2.586,0.712-3.452,2.133c-0.866,1.422-1.302,3.316-1.302,5.683c0,2.374,0.436,4.271,1.302,5.683
	c0.866,1.414,2.014,2.121,3.452,2.121c1.436,0,2.589-0.707,3.46-2.121c0.868-1.413,1.304-3.306,1.304-5.683
	c0-2.364-0.438-4.261-1.312-5.683C255.151,234.093,254,233.381,252.572,233.381z"/>
<path fill="#56565A" d="M263.367,231.608h3.258l4.554,14.925c0.11,0.362,0.193,0.749,0.255,1.159
	c0.062,0.409,0.104,0.842,0.124,1.293c0.051-0.587,0.107-1.1,0.17-1.533c0.061-0.431,0.127-0.752,0.188-0.961l4.728-14.882h3.218
	v19.244h-2.092V235.74c0-0.47,0.015-0.955,0.042-1.45c0.026-0.495,0.075-1.012,0.144-1.544c-0.096,0.507-0.195,0.982-0.305,1.43
	c-0.109,0.443-0.227,0.854-0.346,1.224l-4.877,15.452h-1.91l-4.864-15.699c-0.07-0.235-0.151-0.551-0.237-0.954
	c-0.085-0.401-0.179-0.868-0.273-1.401c0.044,0.875,0.077,1.562,0.1,2.058c0.021,0.495,0.031,0.807,0.031,0.934v15.061h-1.907
	L263.367,231.608L263.367,231.608z"/>
<path fill="#56565A" d="M285.159,231.608h3.834c1.839,0,3.212,0.475,4.131,1.424c0.916,0.946,1.374,2.368,1.374,4.265
	c0,1.808-0.491,3.207-1.468,4.204c-0.98,0.999-2.361,1.496-4.146,1.496h-1.572v7.856h-2.155L285.159,231.608L285.159,231.608z
	 M287.316,233.708v7.191h1.396c1.141,0,2.017-0.318,2.625-0.95c0.612-0.633,0.917-1.539,0.917-2.724c0-1.11-0.284-1.975-0.849-2.593
	c-0.562-0.619-1.36-0.927-2.395-0.927h-1.698v0.002H287.316z"/>
<path fill="#56565A" d="M301.958,231.608h2.623l6.036,19.245h-2.328l-1.486-4.943h-7.329l-1.481,4.943h-2.178L301.958,231.608z
	 M303.225,233.963l-3.056,9.792h6.015L303.225,233.963z"/>
<path fill="#56565A" d="M328.637,231.608h2.536l4.258,9.114l4.348-9.114h2.352l-5.68,11.281v7.964h-2.178v-7.909L328.637,231.608z"
	/>
<path fill="#56565A" d="M126.288,248.579c-0.914,2.059-2.938,2.109-4.903,2.109c-3.83,0-6.151-0.436-6.151-5.944
	c0-2.817,0.377-4.924,2.838-5.18c-0.993-1.091-1.249-1.7-1.249-3.377c0-4.241,1.687-4.852,4.782-4.852
	c3.75,0,4.605,0.861,4.605,5.968h-1.7c-0.216-3.938-0.82-4.477-2.905-4.453c-2.005,0.021-2.87,0.887-2.843,3.361
	c0.011,1.115,0.999,2.313,1.654,3.002l5.464,5.995v-4.047h1.7v1.295c0,1.195,0,3.202-0.297,4.321l2.124,2.387l-1.349,1.37
	L126.288,248.579z M119.334,241.01c-1.627,0.332-2.162,1.549-2.162,3.732c0,3.024,1.068,4.187,4.213,4.187
	c2.537,0,3.363-0.587,4.019-1.731L119.334,241.01z"/>
<path fill="#56565A" d="M313.731,231.389h2.726l6.741,14.978c0.093,0.219,0.208,0.55,0.341,0.998
	c0.132,0.445,0.277,0.969,0.419,1.579c-0.093-0.706-0.166-1.341-0.217-1.905c-0.051-0.562-0.077-1.049-0.077-1.456v-14.193h1.999
	v19.245H323l-6.86-15.117c-0.088-0.18-0.192-0.484-0.315-0.914c-0.125-0.428-0.264-0.983-0.415-1.672
	c0.107,1.027,0.186,1.825,0.233,2.383c0.049,0.558,0.073,0.961,0.073,1.206v14.114h-1.987L313.731,231.389L313.731,231.389z"/>
</svg>
