<?xml version="1.0" encoding="utf-8"?>
<!-- Generator: Adobe Illustrator 16.0.0, SVG Export Plug-In . SVG Version: 6.00 Build 0)  -->
<!DOCTYPE svg PUBLIC "-//W3C//DTD SVG 1.1//EN" "http://www.w3.org/Graphics/SVG/1.1/DTD/svg11.dtd">
<svg version="1.1" id="Lag_1" xmlns="http://www.w3.org/2000/svg" xmlns:xlink="http://www.w3.org/1999/xlink" x="0px" y="0px"
	 viewBox="0 0 50 107.833" enable-background="new 0 0 50 107.833" xml:space="preserve">
<path fill-rule="evenodd" clip-rule="evenodd" fill="#F5F5F5" d="M33.169,9.332l6.342,17.725c0.907,2.539-0.41,5.34-2.957,6.25
	c-2.538,0.91-5.332-0.414-6.242-2.955l0.03,0.092c-0.036-0.105-0.462-1.299-0.462-1.299c-1.446-4.037-5.876-6.157-9.915-4.713
	c0,0-1.178,0.429-1.211,0.434c-2.544,0.91-5.341-0.407-6.248-2.947c-0.91-2.542,0.413-5.339,2.956-6.25L33.169,9.332L33.169,9.332z"
	/>
<path fill="#5A5A5A" d="M25.406,48.834c-13.01,0-23.594-10.584-23.594-23.594S12.396,1.646,25.406,1.646
	C38.416,1.646,49,12.23,49,25.24S38.416,48.834,25.406,48.834z M25.406,3.646c-11.907,0-21.594,9.687-21.594,21.594
	s9.687,21.594,21.594,21.594C37.312,46.834,47,37.147,47,25.24S37.312,3.646,25.406,3.646z"/>
<path fill-rule="evenodd" clip-rule="evenodd" fill="#F5F5F5" d="M33.169,66.52l6.342,17.725c0.907,2.539-0.41,5.34-2.957,6.25
	c-2.538,0.91-5.332-0.414-6.242-2.955l0.03,0.092c-0.036-0.105-0.462-1.299-0.462-1.299c-1.446-4.037-5.876-6.156-9.915-4.713
	c0,0-1.178,0.429-1.211,0.434c-2.544,0.91-5.341-0.408-6.248-2.947c-0.91-2.543,0.413-5.34,2.956-6.25L33.169,66.52L33.169,66.52z"
	/>
<path fill="#00B1EF" d="M25.406,106.021c-13.01,0-23.594-10.584-23.594-23.594s10.584-23.594,23.594-23.594
	C38.416,58.834,49,69.418,49,82.428S38.416,106.021,25.406,106.021z M25.406,60.834c-11.907,0-21.594,9.687-21.594,21.594
	s9.687,21.594,21.594,21.594C37.312,104.021,47,94.335,47,82.428S37.312,60.834,25.406,60.834z"/>
</svg>
