<?xml version="1.0" encoding="utf-8"?>
<!-- Generator: Adobe Illustrator 16.0.0, SVG Export Plug-In . SVG Version: 6.00 Build 0)  -->
<!DOCTYPE svg PUBLIC "-//W3C//DTD SVG 1.1//EN" "http://www.w3.org/Graphics/SVG/1.1/DTD/svg11.dtd">
<svg version="1.1" xmlns="http://www.w3.org/2000/svg" xmlns:xlink="http://www.w3.org/1999/xlink" x="0px" y="0px" 
	 viewBox="0 0 220 100" enable-background="new 0 0 220 100" xml:space="preserve">
<g id="Glunz__x26__Jensen">
	<g>
		<path fill="#5A5A5A" d="M13.757,47.551c-1.219-0.777-2.438-1.094-3.889-1.094c-3.371,0-5.419,2.649-5.419,7.635
			c0,4.779,1.893,7.432,4.926,7.432c0.7,0,1.348-0.086,2.022-0.401v-5.562H8.779v-2.766h5.704v10.43
			c-1.4,0.717-3.111,1.064-5.056,1.064C4.085,64.289,1,60.658,1,54.178c0-6.627,3.318-10.486,8.737-10.486
			c1.53,0,2.93,0.288,4.2,0.807L13.757,47.551z"/>
		<path fill="#5A5A5A" d="M23.661,44.008v17.053h5.886v2.941H20.42V44.008H23.661z"/>
	</g>
	<g>
		<path fill="#5A5A5A" d="M35.769,44.008v12.848c0,3.142,0.674,4.668,2.878,4.668c2.23,0,2.879-1.526,2.879-4.668V44.008h3.085
			v12.445c0,5.27-1.867,7.836-6.042,7.836c-4.174,0-6.041-2.566-6.041-7.836V44.008H35.769z"/>
		<path fill="#5A5A5A" d="M54.179,44.008l6.145,15.498V44.008h2.827v19.994h-3.812L53.245,48.56v15.442h-2.826V44.008H54.179z"/>
	</g>
	<path fill="#5A5A5A" d="M79.121,44.008v3.111l-7.26,13.971h7.416v2.912h-10.89v-3.287l7.156-13.826h-6.896v-2.881H79.121z"/>
	<path fill="#5A5A5A" d="M99.062,61.174c-0.96,1.881-3.093,1.928-5.161,1.928c-4.034,0-6.479-0.396-6.479-5.434
		c0-2.578,0.398-4.504,2.988-4.738c-1.044-0.996-1.315-1.555-1.315-3.086c0-3.877,1.776-4.434,5.035-4.434
		c3.949,0,4.849,0.789,4.849,5.455h-2.571c0-2.368-0.083-2.716-2.277-2.716c-1.441,0-2.215,0.046-2.215,1.718
		c0,1.021,0.272,1.439,0.961,2.066l4.973,4.805v-2.344h2.571v1.184c0,1.09,0,2.254-0.314,3.273l2.236,2.182l-1.421,1.928
		L99.062,61.174z M91.979,54.488c-1.712,0.301-1.733,1.184-1.733,3.18c0,2.764,1.023,2.693,3.656,2.693c1.504,0,2.529,0,3.218-1.045
		L91.979,54.488z"/>
	<path fill="#5A5A5A" d="M115.303,44.008v13.596c0,4.41-1.062,6.656-4.641,6.656c-0.752,0-1.477-0.115-2.204-0.375l0.13-2.996
		c0.415,0.172,0.881,0.289,1.399,0.289c1.791,0,2.048-1.297,2.048-3.977V44.008H115.303z"/>
	<g>
		<path fill="#5A5A5A" d="M130.938,44.008v2.766h-6.041v5.587h5.703v2.769h-5.703v6.104h6.326v2.769h-9.566V44.008H130.938z"/>
		<path fill="#5A5A5A" d="M139.959,44.008l6.146,15.498V44.008h2.824v19.994h-3.811l-6.094-15.442v15.442h-2.826V44.008H139.959z"/>
		<path fill="#5A5A5A" d="M162.852,47.378c-1.218-0.575-2.254-0.835-3.137-0.835c-1.736,0-2.645,0.864-2.645,2.333
			c0,1.384,0.935,2.132,2.75,3.399c2.514,1.785,4.068,2.766,4.068,6.02c0,3.574-2.357,6.021-5.859,6.021
			c-1.451,0-2.902-0.344-4.069-0.949l0.233-3.084c1.244,0.777,2.463,1.182,3.681,1.182c1.765,0,2.774-1.039,2.774-2.564
			c0-2.018-1.192-2.618-3.371-4.147c-2.334-1.642-3.525-2.996-3.525-5.53c0-3.341,2.152-5.53,5.73-5.53
			c1.141,0,2.334,0.201,3.525,0.634L162.852,47.378z"/>
		<path fill="#5A5A5A" d="M178.021,44.008v2.766h-6.041v5.587h5.703v2.769h-5.703v6.104h6.326v2.769h-9.568V44.008H178.021z"/>
		<path fill="#5A5A5A" d="M187.043,44.008l6.146,15.498V44.008h2.824v19.994h-3.811l-6.094-15.442v15.442h-2.826V44.008H187.043z"/>
	</g>
	<path fill="#C83228" d="M207.561,38.733h-6.929c-0.991,0-1.8-0.805-1.8-1.798s0.805-1.799,1.799-1.799h-0.035
		c0.04,0,0.508,0,0.508,0c1.578,0,2.861-1.271,2.861-2.851c0,0-0.001-0.463,0-0.476c0-0.993,0.805-1.798,1.799-1.798
		c0.991,0,1.797,0.805,1.797,1.798V38.733L207.561,38.733z"/>
	<path fill="#C83228" d="M207.553,40.269v6.928c0,0.994-0.805,1.801-1.798,1.801c-0.994,0-1.799-0.805-1.799-1.798v0.034
		c0-0.041,0-0.508,0-0.508c0-1.578-1.272-2.862-2.851-2.862c0,0-0.463,0.002-0.476,0c-0.994,0-1.799-0.804-1.799-1.796
		c0-0.993,0.805-1.799,1.799-1.799H207.553L207.553,40.269z"/>
	<path fill="#C83228" d="M209.096,40.269h6.928c0.994,0,1.801,0.806,1.801,1.799c0,0.992-0.805,1.798-1.799,1.798h0.035
		c-0.041,0-0.509,0-0.509,0c-1.579,0-2.86,1.272-2.86,2.851c0,0,0,0.463,0,0.476c0,0.993-0.805,1.798-1.797,1.798
		c-0.994,0-1.799-0.805-1.799-1.798V40.269L209.096,40.269z"/>
	<path fill="#C83228" d="M209.096,38.74v-6.928c0-0.993,0.805-1.8,1.799-1.8c0.992,0,1.797,0.805,1.797,1.798v-0.034
		c0,0.04,0,0.508,0,0.508c0,1.578,1.272,2.862,2.853,2.862c0,0,0.462-0.002,0.476,0c0.994,0,1.799,0.803,1.799,1.797
		c0,0.992-0.805,1.797-1.799,1.797H209.096L209.096,38.74z"/>
</g>
<g id="MICROFLEX">
	<path fill="#5A5A5A" d="M117.217,71.919h-0.032l-2.833,10.588h-1.474l-2.704-10.588h-0.031v10.588h-1.878V69.809h3.092l2.331,9.478
		h0.032l2.38-9.478h2.995v12.698h-1.878V71.919z"/>
	<path fill="#5A5A5A" d="M122.912,69.809h2.072v12.698h-2.072V69.809z"/>
	<path fill="#5A5A5A" d="M135.75,82.233c-0.42,0.255-1.424,0.455-2.444,0.455c-3.433,0-5.197-2.819-5.197-6.531
		c0-3.711,1.765-6.53,5.132-6.53c1.15,0,2.09,0.346,2.51,0.527l-0.113,2.092c-0.421-0.236-1.084-0.691-2.137-0.691
		c-1.716,0-3.188,1.311-3.188,4.603c0,3.293,1.473,4.603,3.188,4.603c1.004,0,1.668-0.272,2.137-0.655L135.75,82.233z"/>
	<path fill="#5A5A5A" d="M139.027,69.809h3.529c2.008,0,3.368,1.019,3.368,3.347c0,1.656-0.924,2.766-2.186,2.984v0.055
		c0.421,0.072,0.89,0.291,1.246,1.474l1.473,4.839h-2.201l-1.116-4.13c-0.275-1.001-0.811-1.328-1.571-1.328h-0.469v5.458h-2.073
		V69.809z M141.942,75.339c1.101,0,1.845-0.636,1.845-1.928c0-1.456-0.68-1.82-1.845-1.82h-0.842v3.748H141.942z"/>
	<path fill="#5A5A5A" d="M153.136,69.627c2.348,0,4.5,1.964,4.5,6.53s-2.152,6.531-4.5,6.531c-2.349,0-4.5-1.965-4.5-6.531
		S150.787,69.627,153.136,69.627z M153.136,80.905c1.312,0,2.363-1.255,2.363-4.748c0-3.492-1.051-4.748-2.363-4.748
		c-1.312,0-2.363,1.256-2.363,4.748C150.772,79.65,151.824,80.905,153.136,80.905z"/>
	<path fill="#5A5A5A" d="M160.884,69.809h5.715v1.855h-3.643v3.457h3.481v1.855h-3.481v5.53h-2.072V69.809z"/>
	<path fill="#5A5A5A" d="M169.905,69.809h2.071v10.843h3.725v1.855h-5.796V69.809z"/>
	<path fill="#5A5A5A" d="M178.51,69.809h5.941v1.855h-3.87v3.384h3.66v1.855h-3.66v3.748h4.031v1.855h-6.103V69.809z"/>
	<path fill="#5A5A5A" d="M191.87,77.777l-2.348,4.729h-2.283l3.368-6.731l-2.963-5.967h2.38l1.781,4.093l2.088-4.093h2.218
		l-3.044,5.967l3.271,6.731h-2.363L191.87,77.777z"/>
</g>
<g id="OFFSET" display="none">
	<path display="inline" fill="#5B5A5A" d="M175.457,71.978c-0.756-0.357-1.398-0.518-1.944-0.518c-1.077,0-1.64,0.535-1.64,1.445
		c0,0.857,0.578,1.321,1.704,2.107c1.558,1.106,2.522,1.714,2.522,3.732c0,2.214-1.462,3.731-3.632,3.731
		c-0.9,0-1.8-0.215-2.522-0.59l0.144-1.91c0.772,0.482,1.527,0.732,2.282,0.732c1.094,0,1.72-0.643,1.72-1.589
		c0-1.251-0.739-1.626-2.088-2.572c-1.447-1.017-2.187-1.856-2.187-3.428c0-2.071,1.334-3.429,3.552-3.429
		c0.707,0,1.446,0.126,2.186,0.393L175.457,71.978z"/>
	<path display="inline" fill="#5B5A5A" d="M144.934,69.691c2.318,0,4.446,1.941,4.446,6.453s-2.128,6.452-4.446,6.452
		c-2.319,0-4.447-1.94-4.447-6.452S142.614,69.691,144.934,69.691z M144.934,80.836c1.295,0,2.335-1.24,2.335-4.691
		s-1.04-4.691-2.335-4.691c-1.296,0-2.336,1.24-2.336,4.691S143.638,80.836,144.934,80.836z"/>
	<path display="inline" fill="#5B5A5A" d="M152.588,69.872h5.646v1.833h-3.599v3.415h3.438v1.833h-3.438v5.464h-2.048V69.872z"/>
	<path display="inline" fill="#5B5A5A" d="M161.582,69.872h5.646v1.833h-3.598v3.415h3.438v1.833h-3.438v5.464h-2.048V69.872z"/>
	<path display="inline" fill="#5B5A5A" d="M179.209,69.872h5.87v1.833h-3.822v3.343h3.614v1.833h-3.614v3.703h3.982v1.833h-6.03
		V69.872z"/>
	<g display="inline">
		<path fill="#5B5A5A" d="M190.892,82.265V71.729h-2.969v-2.085h8.084v2.085h-2.969v10.535H190.892z"/>
	</g>
</g>
<g id="iCTP" display="none">
	<path display="inline" fill="#C83228" d="M11.763,81.283c0,1.327,0.663,2.079,1.701,2.079c1.325,0,3.499-2.362,7.185-6.709
		l1.324,1.229c-5.388,6.993-9.453,10.585-13.99,10.585c-2.933,0-4.539-1.699-4.539-4.537c0-1.319,0.379-3.594,1.324-6.143
		l12.1-32.387c0.85-2.175,1.039-3.781,1.039-4.161c0-1.134-0.851-2.078-1.888-2.078c-2.272,0-4.919,3.309-9.361,9.356L5.24,47.384
		c5.579-8.697,10.589-12.948,14.84-12.948c3.687,0,5.483,1.889,5.483,5.575c0,2.552-0.947,5.67-2.461,9.641l-10.49,27.944
		C12.048,79.107,11.763,80.336,11.763,81.283z"/>
	<path display="inline" fill="#5A5A5A" d="M71.805,53.984h6.547v6.599h-6.547v10.869c0,3.897,1.093,5.405,4.263,5.405
		c0.52,0,1.246-0.155,2.284-0.417l0.156,5.978c-2.026,0.467-3.845,0.671-5.561,0.671c-7.378,0-10.287-3.481-10.287-11.376v-11.13
		h-5.145v-6.599h5.664v-7.686h8.625V53.984z"/>
	<path display="inline" fill="#5A5A5A" d="M96.793,46.298c9.978,0,14.812,3.587,14.812,11.486c0,7.796-4.833,12.007-13.979,12.007
		h-4.104v12.574h-9.614V46.298H96.793z M93.521,63.292h2.545c3.846,0,5.821-1.714,5.821-5.041c0-3.532-1.976-5.455-5.769-5.455
		h-2.598V63.292z"/>
	<g display="inline">
		<path fill="#5A5A5A" d="M48.148,75.764c-7.225,0-11.954-4.521-11.954-11.64c0-7.064,4.573-11.587,11.798-11.587
			c2.372,0,4.593,0.483,6.689,1.401v-7.486c-2.485-0.68-5.257-1.036-8.25-1.036c-12.419,0-20.058,7.331-20.058,18.708
			c0,11.953,7.638,19.072,20.784,19.072c3.42,0,6.745-0.45,10.062-1.327l-1.341-7.712C53.206,75.237,50.615,75.764,48.148,75.764z"
			/>
	</g>
	<g display="inline">
		<path fill="#5A5A5A" d="M115.753,46.815h-1.54v-0.517h3.695v0.517h-1.54v4.104h-0.615V46.815z"/>
		<path fill="#5A5A5A" d="M118.432,46.298h0.842l1.455,3.883l1.464-3.883h0.841v4.621h-0.583v-3.844h-0.014l-1.443,3.844h-0.522
			l-1.442-3.844h-0.013v3.844h-0.584V46.298z"/>
	</g>
	<ellipse display="inline" fill="#C83228" cx="34.242" cy="5.581" rx="4.789" ry="4.58"/>
	<ellipse display="inline" fill="#C83228" cx="28.382" cy="21.632" rx="4.79" ry="4.581"/>
</g>
<g id="DEGRAF" display="none">
	<path display="inline" fill="#5B5A5A" d="M135.887,69.81h2.942c3.528,0,5.404,2.145,5.404,6.345c0,4.271-2.265,6.344-5.404,6.344
		h-2.942V69.81z M137.956,80.716h0.696c2.329,0,3.382-1.781,3.382-4.562c0-2.782-1.053-4.563-3.382-4.563h-0.696V80.716z"/>
	<path display="inline" fill="#5B5A5A" d="M147.579,69.81h5.938v1.853h-3.866v3.383h3.654v1.854h-3.654v3.744h4.026v1.855h-6.098
		V69.81z"/>
	<path display="inline" fill="#5B5A5A" d="M161.507,75.391h3.657v6.634c-0.582,0.346-1.586,0.655-3.057,0.655
		c-3.624,0-5.549-2.764-5.549-6.525c0-3.764,1.925-6.527,5.549-6.527c1.292,0,2.313,0.327,2.749,0.546l-0.112,2.091
		c-0.663-0.455-1.57-0.781-2.606-0.781c-2.199,0-3.38,2.035-3.38,4.672c0,2.854,1.147,4.672,3.269,4.672
		c0.483,0,0.921-0.11,1.196-0.236v-3.418h-1.716V75.391z"/>
	<path display="inline" fill="#5B5A5A" d="M168.586,69.81h3.526c2.007,0,3.366,1.018,3.366,3.344c0,1.654-0.924,2.765-2.186,2.982
		v0.054c0.421,0.073,0.891,0.291,1.247,1.473l1.472,4.836h-2.2l-1.117-4.126c-0.274-1.001-0.808-1.328-1.568-1.328h-0.471v5.454
		h-2.069V69.81z M171.498,75.335c1.101,0,1.844-0.636,1.844-1.926c0-1.455-0.68-1.818-1.844-1.818h-0.843v3.744H171.498z"/>
	<path display="inline" fill="#5B5A5A" d="M184.785,79.444h-3.882l-0.811,3.054h-2.069l3.785-12.688h2.265l3.641,12.688h-2.137
		L184.785,79.444z M184.348,77.662l-1.422-5.927h-0.033l-1.554,5.927H184.348z"/>
	<path display="inline" fill="#5B5A5A" d="M190.298,69.81h5.71v1.853h-3.639v3.455h3.639v1.854h-3.639v5.527h-2.071V69.81z"/>
</g>
</svg>
