<?xml version="1.0" encoding="utf-8"?>
<!-- Generator: Adobe Illustrator 16.0.0, SVG Export Plug-In . SVG Version: 6.00 Build 0)  -->
<!DOCTYPE svg PUBLIC "-//W3C//DTD SVG 1.1//EN" "http://www.w3.org/Graphics/SVG/1.1/DTD/svg11.dtd">
<svg version="1.1" id="Lag_1" xmlns="http://www.w3.org/2000/svg" xmlns:xlink="http://www.w3.org/1999/xlink" x="0px" y="0px"
	 width="35px" height="25px" viewBox="0 0 35 25" enable-background="new 0 0 35 25" xml:space="preserve">
<polygon fill="#27A7E4" points="27.5,4 26.5,4 26.5,3 8.5,3 8.5,4 7.5,4 7.5,6 8.5,6 8.5,7 26.5,7 26.5,6 27.5,6 "/>
<polygon fill="#27A7E4" points="27.5,11 26.5,11 26.5,10 8.5,10 8.5,11 7.5,11 7.5,13 8.5,13 8.5,14 26.5,14 26.5,13 27.5,13 "/>
<polygon fill="#27A7E4" points="27.5,18 26.5,18 26.5,17 8.5,17 8.5,18 7.5,18 7.5,20 8.5,20 8.5,21 26.5,21 26.5,20 27.5,20 "/>
</svg>
