<?xml version="1.0" encoding="utf-8"?>
<!-- Generator: Adobe Illustrator 16.0.0, SVG Export Plug-In . SVG Version: 6.00 Build 0)  -->
<!DOCTYPE svg PUBLIC "-//W3C//DTD SVG 1.1//EN" "http://www.w3.org/Graphics/SVG/1.1/DTD/svg11.dtd">
<svg version="1.1" id="Lag_1" xmlns="http://www.w3.org/2000/svg" xmlns:xlink="http://www.w3.org/1999/xlink" x="0px" y="0px"
	 viewBox="0 0 63.833 94" enable-background="new 0 0 63.833 94" xml:space="preserve">
<path fill-rule="evenodd" clip-rule="evenodd" fill="#F5F5F5" d="M40.358,22.08l-10.49,10.489c-1.504,1.503-3.945,1.506-5.449,0.003
	c-1.502-1.503-1.502-3.943,0.002-5.445l-0.054,0.052c0.062-0.062,0.769-0.769,0.769-0.769c2.391-2.39,2.408-6.26,0.018-8.649
	c0,0-0.703-0.698-0.721-0.721c-1.503-1.503-1.506-3.938-0.002-5.443c1.504-1.503,3.941-1.503,5.445,0L40.358,22.08L40.358,22.08z"/>
<path fill="#5A5A5A" d="M60.992,41.833H2.658v-39.5h58.333V41.833z M4.658,39.833h54.333v-35.5H4.658V39.833z"/>
<path fill-rule="evenodd" clip-rule="evenodd" fill="#F5F5F5" d="M40.358,71.58l-10.49,10.489c-1.504,1.503-3.945,1.506-5.449,0.003
	c-1.502-1.503-1.502-3.943,0.002-5.445l-0.054,0.052c0.062-0.062,0.769-0.769,0.769-0.769c2.391-2.39,2.408-6.26,0.018-8.649
	c0,0-0.703-0.698-0.721-0.721c-1.503-1.503-1.506-3.938-0.002-5.443c1.504-1.503,3.941-1.503,5.445,0L40.358,71.58L40.358,71.58z"/>
<path fill="#00B1EF" d="M60.992,91.333H2.658v-39.5h58.334V91.333z M4.658,89.333h54.334v-35.5H4.658V89.333z"/>
</svg>
