<?xml version="1.0" encoding="utf-8"?>
<!-- Generator: Adobe Illustrator 16.0.0, SVG Export Plug-In . SVG Version: 6.00 Build 0)  -->
<!DOCTYPE svg PUBLIC "-//W3C//DTD SVG 1.1//EN" "http://www.w3.org/Graphics/SVG/1.1/DTD/svg11.dtd">
<svg version="1.1" id="Lag_1" xmlns="http://www.w3.org/2000/svg" xmlns:xlink="http://www.w3.org/1999/xlink" x="0px" y="0px"
	 width="57.167px" height="110px" viewBox="0 0 57.167 110" enable-background="new 0 0 57.167 110" xml:space="preserve">
<g id="Layer_1">
	<path fill="#E6E6E6" d="M51.387,13.881c0,0,0,23.925,0,36.119c-13.109,0-26.219,0-39.328,0c0-16.667,0-33.333,0-49.999
		c8.638,0,26.062,0,26.062,0L51.387,13.881z"/>
	<path fill="#9A9A99" d="M37.574,0.001c0.154,0,0.309,0,0.463,0c0,4.458,0,8.917,0,13.375c3.242,0.146,7.334,0.08,10.813,0.08
		c0.983,0,2.698-0.307,2.548,1.128c-0.23,0-0.462,0-0.693,0c-4.273-0.403-9.096-0.235-13.439-0.563c0-0.215,0-0.43,0-0.645
		C37.555,9.114,37.458,4.449,37.574,0.001z"/>
	<path fill="#E6E6E6" d="M38.121,0.001c-0.35-0.122-0.082,13.376-0.082,13.376s12.191,0.504,13.35,0.504
		C46.44,5.211,38.47,0.123,38.121,0.001z"/>
	<text transform="matrix(1 0 0 1 9.7354 11.7949)" fill="#FFFFFF" font-family="'MyriadPro-BoldCond'" font-size="9.7502">PDF</text>
</g>
<g id="Lag_2">
	<path fill="#5B5A5A" d="M17.248,44.895c-0.059,0-0.117-0.021-0.163-0.062c-0.086-0.076-0.106-0.202-0.05-0.303
		c2.179-3.847,4.672-6.831,7.413-8.868c1.585-3.045,2.797-6.582,3.6-10.514c-1.208-5.344,1.053-10.859,1.077-10.914
		c0.043-0.106,0.155-0.167,0.269-0.147c0.112,0.021,0.196,0.117,0.2,0.231c0.003,0.048,0.16,4.863-1.044,10.823
		c0.729,3.111,2.527,5.524,5.34,7.175c0.128-0.003,0.255-0.004,0.381-0.004c4.38,0,7.881,1.741,9.2,2.396
		c0.22,0.11,0.395,0.196,0.469,0.223c0.114,0.041,0.182,0.159,0.158,0.279c-0.023,0.119-0.131,0.203-0.254,0.195
		c-4.12-0.251-7.51-1.124-10.079-2.596c-3.196,0.102-6.201,1.171-8.936,3.178c-1.947,3.706-4.448,6.687-7.437,8.86
		C17.348,44.879,17.297,44.895,17.248,44.895z M23.849,36.757c-2.081,1.744-4.009,4.065-5.751,6.928
		C20.328,41.855,22.256,39.533,23.849,36.757z M28.326,26.182c-0.732,3.262-1.75,6.243-3.033,8.886c2.403-1.591,5-2.499,7.74-2.708
		C30.716,30.836,29.138,28.763,28.326,26.182z M34.806,32.811c2.104,1.036,4.708,1.708,7.768,2.005
		C41.046,34.093,38.223,32.924,34.806,32.811z M29.102,15.803c-0.513,1.715-1.209,4.806-0.797,7.993
		C28.907,20.379,29.066,17.461,29.102,15.803z"/>
	<rect y="3.135" fill="#5B5A5A" width="34.921" height="10.501"/>
	<g>
		<path fill="#FFFFFF" d="M10.3,5.321c0.361-0.078,0.848-0.127,1.335-0.127c0.76,0,1.355,0.107,1.784,0.507
			c0.391,0.341,0.566,0.888,0.566,1.443c0,0.711-0.214,1.209-0.556,1.579c-0.409,0.429-1.072,0.625-1.599,0.625
			c-0.088,0-0.175,0-0.253,0v2.447H10.3V5.321L10.3,5.321z M11.577,8.304c0.059,0.02,0.127,0.02,0.205,0.02
			c0.644,0,0.937-0.459,0.937-1.072c0-0.575-0.235-1.024-0.829-1.024c-0.117,0-0.234,0.02-0.312,0.049L11.577,8.304L11.577,8.304z"
			/>
		<path fill="#FFFFFF" d="M14.756,5.321c0.322-0.078,0.79-0.127,1.296-0.127c0.829,0,1.404,0.195,1.823,0.585
			c0.566,0.507,0.858,1.375,0.858,2.652c0,1.326-0.342,2.271-0.917,2.779c-0.439,0.429-1.093,0.633-2.009,0.633
			c-0.399,0-0.799-0.039-1.053-0.068V5.321H14.756z M16.033,10.78c0.059,0.02,0.156,0.02,0.225,0.02c0.614,0,1.15-0.604,1.15-2.418
			c0-1.345-0.351-2.165-1.121-2.165c-0.087,0-0.175,0-0.253,0.029L16.033,10.78L16.033,10.78z"/>
		<path fill="#FFFFFF" d="M19.543,5.223h2.856v1.111H20.82v1.687h1.482v1.062H20.82v2.71h-1.277V5.223L19.543,5.223z"/>
	</g>
	<path fill="#E6E6E6" d="M51.388,73.881c0,0,0,23.926,0,36.119c-13.109,0-26.219,0-39.33,0c0-16.666,0-33.333,0-49.999
		c8.639,0,26.062,0,26.062,0L51.388,73.881z"/>
	<path fill="#9A9A99" d="M37.574,60.002c0.155,0,0.311,0,0.463,0c0,4.458,0,8.916,0,13.374c3.243,0.146,7.336,0.081,10.814,0.081
		c0.984,0,2.697-0.309,2.548,1.128c-0.229,0-0.463,0-0.694,0c-4.272-0.403-9.095-0.235-13.438-0.563c0-0.215,0-0.431,0-0.646
		C37.555,69.113,37.458,64.448,37.574,60.002z"/>
	<path fill="#E6E6E6" d="M38.123,60.001c-0.353-0.121-0.086,13.375-0.086,13.375s12.194,0.505,13.353,0.505
		C46.441,65.211,38.471,60.122,38.123,60.001z"/>
	<text transform="matrix(1 0 0 1 9.7344 71.7939)" fill="#FFFFFF" font-family="'MyriadPro-BoldCond'" font-size="9.7503">PDF</text>
	<path fill="#26A6E3" d="M16.479,105.51l0.556-0.98c2.179-3.848,4.672-6.83,7.413-8.867c1.585-3.046,2.796-6.582,3.6-10.514
		c-1.206-5.344,1.054-10.858,1.077-10.914l0.43-1.029l0.041,1.113c0.001,0.05,0.158,4.863-1.045,10.824
		c0.729,3.11,2.526,5.523,5.341,7.176c4.562-0.104,8.224,1.718,9.581,2.392c0.221,0.108,0.395,0.194,0.47,0.224l1.644,0.58
		l-1.739-0.106c-4.12-0.25-7.511-1.124-10.079-2.597c-3.195,0.102-6.201,1.17-8.936,3.178c-1.947,3.707-4.448,6.688-7.437,8.861
		L16.479,105.51z M23.848,96.758c-2.08,1.743-4.008,4.065-5.751,6.928C20.328,101.855,22.256,99.532,23.848,96.758z M25.346,94.998
		l-0.029,0.054c2.385-1.573,4.958-2.475,7.675-2.688l-0.035-0.021l0.047-0.001c-2.293-1.52-3.86-3.578-4.671-6.14l-0.02,0.098
		l-0.007-0.028c-0.726,3.207-1.728,6.142-2.989,8.75L25.346,94.998z M34.806,92.811c2.104,1.035,4.707,1.707,7.77,2.004
		C41.046,94.092,38.222,92.924,34.806,92.811z M29.103,75.805c-0.513,1.715-1.208,4.805-0.798,7.99
		C28.906,80.379,29.066,77.463,29.103,75.805z"/>
	<rect y="63.135" fill="#26A6E3" width="34.921" height="10.502"/>
	<g>
		<path fill="#FFFFFF" d="M10.3,65.32c0.361-0.077,0.848-0.127,1.336-0.127c0.76,0,1.355,0.106,1.785,0.507
			c0.39,0.342,0.565,0.888,0.565,1.442c0,0.713-0.214,1.209-0.555,1.58c-0.41,0.43-1.073,0.623-1.599,0.623
			c-0.087,0-0.176,0-0.253,0v2.448h-1.277L10.3,65.32L10.3,65.32z M11.577,68.303c0.059,0.021,0.127,0.021,0.205,0.021
			c0.644,0,0.936-0.46,0.936-1.073c0-0.575-0.234-1.023-0.829-1.023c-0.117,0-0.234,0.021-0.312,0.051V68.303z"/>
		<path fill="#FFFFFF" d="M14.756,65.32c0.322-0.077,0.79-0.127,1.296-0.127c0.829,0,1.404,0.195,1.824,0.586
			c0.565,0.506,0.858,1.373,0.858,2.65c0,1.326-0.341,2.271-0.917,2.778c-0.438,0.431-1.092,0.634-2.008,0.634
			c-0.399,0-0.799-0.039-1.053-0.068V65.32z M16.033,70.779c0.059,0.021,0.156,0.021,0.225,0.021c0.614,0,1.15-0.604,1.15-2.418
			c0-1.346-0.352-2.165-1.122-2.165c-0.087,0-0.176,0-0.253,0.029V70.779z"/>
		<path fill="#FFFFFF" d="M19.543,65.223H22.4v1.11h-1.579v1.687h1.482v1.062h-1.482v2.71h-1.277L19.543,65.223L19.543,65.223z"/>
	</g>
</g>
</svg>
