<?xml version="1.0" encoding="utf-8"?>
<!-- Generator: Adobe Illustrator 19.2.1, SVG Export Plug-In . SVG Version: 6.00 Build 0)  -->
<svg version="1.1" id="Layer_1" xmlns="http://www.w3.org/2000/svg" xmlns:xlink="http://www.w3.org/1999/xlink" x="0px" y="0px"
	 viewBox="0 0 283.5 283.5" style="enable-background:new 0 0 283.5 283.5;" xml:space="preserve">
<style type="text/css">
	.st0{fill:#FCFCFC;}
	.st1{fill:#FFFFFF;}
	.st2{fill:#020202;}
</style>
<circle cx="136.7" cy="139.7" r="122.7"/>
<path class="st0" d="M105.9,139.8c3.4,0.9,6.6,1.9,9.9,2.6c0.8,0.2,1.7-0.3,2.5-0.7c0.5-0.3,0.8-1,1.3-1.3c3.5-2.1,3.7-5,2.3-8.5
	c-0.6-1.5-1-3.2-1.2-4.9c-0.1-0.6,0.3-1.6,0.9-1.9c2.2-1.4,4.6-2.7,6.9-3.9c0.5-0.3,1.6-0.1,2.1,0.3c2.1,1.9,4.2,4,6.2,6
	c0.9,0.9,1.7,1.3,2.9,0.7c0.8-0.4,1.7-0.7,2.6-0.8c3.6-0.1,5-2.2,5.5-5.5c0.3-1.8,1-3.5,1.4-5.3c0.3-1.2,0.9-1.6,2-1.5
	c2.5,0.1,5,0.1,7.6,0c1.2,0,1.7,0.4,2,1.6c0.7,2.8,1.4,5.6,2.3,8.3c0.3,0.7,1.1,1.5,1.9,1.8c2,0.7,4,1.3,6.1,1.6
	c0.8,0.1,1.9-0.1,2.5-0.6c2.5-2.2,4.9-4.6,7.4-7c2.8,1.7,5.6,3.2,8.3,4.9c0.4,0.3,0.6,1.3,0.5,1.9c-0.7,2.9-1.5,5.7-2.2,8.5
	c-0.2,0.7,0.2,1.7,0.6,2.3c0.5,0.7,1.4,1.2,1.9,1.9c1.8,2.8,4.2,3.2,7.1,1.9c0.6-0.3,1.2-0.3,1.8-0.5c5.4-1.4,5.4-1.4,8.2,3.5
	c2.6,4.4,2.8,4.6-1,7.9c-3.6,3.1-5.1,6.2-3.1,10.9c0.8,2,1.5,3.1,3.6,3.6c2.4,0.5,4.7,1.3,7.1,1.9c1.1,0.3,1.5,0.8,1.4,1.9
	c-0.1,2.6-0.1,5.2,0,7.8c0,1.1-0.4,1.6-1.5,1.9c-2.7,0.7-5.4,1.6-8.1,2.2c-1.3,0.3-2,0.9-2.3,2.3c-0.3,1.9-0.9,3.8-1.6,5.7
	c-0.5,1.4-0.4,2.3,0.7,3.3c2.2,2.1,4.3,4.4,6.4,6.7c0.1,0.1,0.1,0.2,0.3,0.6c-1.6,2.7-3.2,5.5-5,8.2c-0.2,0.4-1.2,0.5-1.8,0.3
	c-2.9-0.7-5.7-1.6-8.5-2.2c-0.8-0.2-1.7,0.3-2.5,0.7c-0.6,0.3-0.9,1.1-1.5,1.5c-3.2,2-3.6,4.7-2.2,8c0.6,1.5,0.8,3.3,1.3,4.9
	c0.4,1.2,0.2,1.9-1,2.6c-2.3,1.2-4.5,2.6-6.8,3.8c-0.5,0.3-1.6,0.1-2.1-0.3c-2.1-1.9-4.1-3.9-6-5.9c-1-1-1.9-1.6-3.3-0.8
	c-0.7,0.3-1.5,0.6-2.2,0.6c-3.8,0.1-5.2,2.3-5.7,5.7c-0.3,2.2-1.2,4.3-1.8,6.6c-3.3,0-6.5,0.1-9.7-0.1c-0.5,0-1.2-0.8-1.4-1.4
	c-0.9-2.7-1.6-5.5-2.3-8.3c-0.3-1.2-0.9-1.7-2.1-2c-1.6-0.3-3.2-0.6-4.7-1.2c-2.1-1-3.6-0.4-5.1,1.3c-1.6,1.8-3.4,3.3-5.1,5
	c-0.7,0.8-1.3,1-2.3,0.4c-2.2-1.4-4.6-2.6-6.8-4.1c-0.5-0.3-0.9-1.4-0.8-1.9c0.6-2.9,1.5-5.7,2.1-8.5c0.2-0.8-0.2-1.8-0.7-2.5
	c-0.4-0.7-1.3-1.1-1.8-1.8c-1.9-3-4.4-3.2-7.5-2c-1.7,0.7-3.5,0.9-5.3,1.4c-1.1,0.3-1.8,0.2-2.4-0.9c-1.2-2.2-2.5-4.4-3.8-6.5
	c-0.7-1.1-0.4-1.8,0.4-2.7c1.9-1.8,3.7-3.8,5.6-5.7c1-1,1.4-1.9,0.8-3.3c-0.6-1.5-1.1-3.1-1.3-4.6c-0.2-1.9-1.2-2.6-2.9-3
	c-2.5-0.6-5-1.4-7.5-2c-1.2-0.3-1.5-0.9-1.5-2c0.1-2.4,0.1-4.9,0-7.3c0-1.3,0.4-1.9,1.6-2.2c2.7-0.7,5.4-1.5,8.1-2.2
	c1.1-0.3,1.7-0.8,2-2c0.4-2.2,1.3-4.3,1.7-6.5c0.2-0.7-0.1-1.8-0.5-2.3c-1.9-2.2-3.9-4.2-5.9-6.3c-0.9-0.9-1.1-1.6-0.4-2.7
	C102.8,145,104.3,142.4,105.9,139.8z M154.8,214.2c21.3,0.1,39-17.3,39.1-38.5c0.1-21.7-17.3-39.3-38.9-39.3
	c-21.5,0-39.1,17.3-39.2,38.6C115.7,196.7,133.1,214.1,154.8,214.2z"/>
<path class="st1" d="M121.2,121.4c-0.1,0.3-0.2,0.5-0.2,0.7c-2.5,4.7-2.5,4.7-7.7,3.3c-2.5-0.7-5.3,2.2-4.7,4.7
	c0.4,1.5,0.8,3.1,1.2,4.8c-1.5,0.9-2.9,1.8-4.4,2.5c-0.4,0.2-1.2,0.1-1.6-0.2c-0.6-0.4-1.1-1-1.7-1.6c-2.6-2.6-3.2-2.7-6.5-1.3
	c-0.4,0.2-0.8,0.7-1.1,1.1c-0.2,0.4-0.3,0.9-0.4,1.4c-1.3,4.5-1.6,4.7-6.3,4.1c-0.5-0.1-1-0.6-1.3-1c-0.3-0.4-0.5-1.1-0.5-1.6
	c-0.1-3.6-2.6-4.6-5.5-5c-0.5-0.1-1.2,0.2-1.6,0.5c-0.9,0.7-1.7,1.4-2.4,2.3c-1.1,1.4-2.1,1.5-3.7,0.5c-3.3-2.1-3.4-2-2.3-6
	c0.6-2.3-0.5-4.8-2.6-5.7c-0.4-0.2-1-0.1-1.4,0c-1.4,0.3-2.7,0.8-4.1,1c-0.6,0.1-1.5-0.2-1.8-0.7c-2.8-4-2.8-4,0.6-7.4
	c2.3-2.3,1.2-6.4-1.8-7.3c-4.5-1.3-4.5-1.3-4.5-6.1c0-0.4,0-0.8,0.1-1.3c1-0.3,2-0.7,3-0.9c2.4-0.4,3.9-1.5,4.3-4.2
	c0.3-1.7,0.4-2.9-1-4c-1.1-0.9-1.9-2-3-3.1c0.9-1.5,1.8-3.1,2.7-4.5c0.2-0.3,0.9-0.6,1.4-0.5c0.8,0.1,1.7,0.2,2.4,0.6
	c2.7,1.5,4.5,0,6-2c0.3-0.4,0.4-1,0.4-1.5c0-0.5-0.2-1.1-0.4-1.6c-1-4-1-4,2.7-6.2c1.3-0.7,2.1-0.8,3,0.4c0.3,0.4,0.8,0.8,1.2,1.2
	c2.3,2.2,3.8,2.5,6.6,1.1c0.4-0.2,0.7-0.8,0.9-1.3c0.3-0.6,0.4-1.3,0.6-2c1.2-4,0.3-3.1,4.4-3.4c2.2-0.1,3.3,0.6,3.5,2.7
	c0,0.3,0.2,0.7,0.3,1c0.7,2.4,3.4,4.5,5.8,4.1c0.8-0.1,1.6-1,2.3-1.7c3-2.8,4.4-2.9,7.5,0c0.3,0.3,0.4,1,0.4,1.4
	c-0.1,1-0.4,1.9-0.7,2.8c-0.8,1.9-0.3,3.1,1.2,4.5c1.3,1.2,2.3,1.4,3.9,1c4.7-1.3,5-1.2,6.9,3.4c0.2,0.4,0.1,1.1-0.2,1.4
	c-0.4,0.6-0.9,1.1-1.4,1.5c-3,1.8-2.4,4.3-1.4,6.9c0.2,0.5,0.8,0.9,1.3,1.2c0.4,0.2,0.9,0.3,1.4,0.4c4.9,1.5,3.9,0.1,4.1,5.6
	c0,1.3-0.4,2-1.6,2.2c-0.3,0.1-0.7,0.2-1,0.3c-3.9,0-4.6,2.9-5.1,5.8c-0.1,0.5,0.3,1.3,0.7,1.8C118.8,119,120.1,120.2,121.2,121.4z
	 M89.9,83.8c-12.5,0-22.6,10-22.6,22.4c0,12.5,10.1,22.6,22.5,22.6c12.4,0,22.6-10.1,22.6-22.5C112.5,93.9,102.4,83.8,89.9,83.8z"/>
<path class="st1" d="M115,62.2c1.6-3.1,1.6-3.1,4.5-2.5c1.9,0.4,3.5-1.1,3-3.1c-0.3-1.3-1.1-2.5,0.9-3.5c1.4-0.7,2.2-0.6,3.2,0.5
	c2.1,2.2,4.3,1.6,5-1.3c0.4-1.6,1.1-2.1,2.7-2.1c1.4,0,1.8,0.6,2.1,1.7c0.9,3.3,3.1,3.9,5.5,1.5c1-1,1.7-1,2.9-0.3
	c1.2,0.7,1.7,1.4,1.2,2.8c-0.9,3.1,0.5,4.7,3.5,3.7c2.7-0.9,2.7,1.4,3.8,2.7c-0.6,0.6-1.1,1.2-1.6,1.7c-1.8,1.9-1.2,4.2,1.3,4.8
	c1.5,0.4,2.5,0.9,2.3,2.7c-0.1,1.3-0.6,1.8-1.8,2.1c-3.3,0.9-4,3.2-1.5,5.7c0.9,0.9,1,1.6,0.3,2.7c-0.7,1.1-1.2,1.8-2.7,1.3
	c-3.4-1-4.8,0.3-3.8,3.7c0.8,2.8-1.7,2.3-2.7,3.5c-0.6-0.6-1.1-1-1.6-1.5c-2.1-2.1-4.3-1.5-4.9,1.4c-0.4,1.6-1.2,1.9-2.6,1.9
	c-1.3,0-1.8-0.5-2.2-1.7c-0.9-3.3-3.1-3.9-5.5-1.5c-1,1-1.7,1-2.9,0.3c-1.1-0.7-1.6-1.2-1.2-2.6c1-3.5-0.3-4.8-3.7-3.8
	c-1.4,0.4-2-0.1-2.6-1.2c-0.7-1.1-0.8-1.9,0.2-2.9c2.5-2.5,2-4.5-1.5-5.4c-1.2-0.3-1.8-0.9-1.6-2.2c0.1-1-0.2-2,1.3-2.4
	c3.9-1.2,4.4-3.1,1.6-6.1C115.5,62.8,115.3,62.5,115,62.2z M133.9,57.8c-7.6,0-13.7,6.2-13.6,13.8c0.1,7.5,6.2,13.6,13.7,13.6
	c7.6,0,13.7-6.2,13.7-13.7C147.7,63.8,141.5,57.8,133.9,57.8z"/>
<path d="M154.8,214.2c-21.7-0.1-39.1-17.6-39-39.2c0.1-21.3,17.7-38.6,39.2-38.6c21.6,0,39,17.6,38.9,39.3
	C193.8,196.9,176.2,214.3,154.8,214.2z M154.9,208.6c18.4,0,33.3-14.9,33.3-33.2c0-18.4-14.9-33.2-33.3-33.3
	c-18.5,0-33.4,14.9-33.4,33.4C121.6,193.8,136.5,208.6,154.9,208.6z"/>
<path class="st2" d="M89.9,83.8c12.5,0,22.6,10.1,22.6,22.5c0,12.4-10.2,22.5-22.6,22.5c-12.5,0-22.5-10.1-22.5-22.6
	C67.3,93.8,77.3,83.8,89.9,83.8z M89.8,87.1c-10.7,0-19.2,8.6-19.2,19.2c0,10.6,8.7,19.2,19.3,19.1c10.7,0,19.2-8.6,19.2-19.2
	C109.1,95.6,100.5,87.1,89.8,87.1z"/>
<path d="M133.9,57.8c7.6,0,13.8,6,13.8,13.6c0,7.6-6.1,13.7-13.7,13.7c-7.5,0-13.6-6.1-13.7-13.6C120.2,64,126.3,57.8,133.9,57.8z
	 M134.1,59.9c-6.5-0.1-11.7,4.9-11.7,11.4c-0.1,6.5,4.9,11.7,11.4,11.8c6.6,0.1,11.8-5,11.8-11.5C145.6,65.1,140.6,60,134.1,59.9z"
	/>
<path class="st1" d="M154.9,208.6c-18.5,0-33.4-14.7-33.4-33.1c0-18.5,14.9-33.4,33.4-33.4c18.4,0,33.3,14.9,33.3,33.3
	C188.2,193.7,173.4,208.5,154.9,208.6z"/>
<path class="st1" d="M89.8,87.1c10.7,0,19.3,8.4,19.3,19.1c0,10.7-8.5,19.2-19.2,19.2c-10.7,0-19.3-8.5-19.3-19.1
	C70.5,95.7,79.1,87.2,89.8,87.1z"/>
<path class="st1" d="M134.1,59.9c6.5,0.1,11.5,5.2,11.5,11.6c0,6.5-5.3,11.6-11.8,11.5c-6.5-0.1-11.5-5.3-11.4-11.8
	C122.4,64.8,127.6,59.8,134.1,59.9z"/>
</svg>
