<?xml version="1.0" encoding="utf-8"?>
<!-- Generator: Adobe Illustrator 19.2.1, SVG Export Plug-In . SVG Version: 6.00 Build 0)  -->
<svg version="1.1" id="Layer_1" xmlns="http://www.w3.org/2000/svg" xmlns:xlink="http://www.w3.org/1999/xlink" x="0px" y="0px"
	 viewBox="0 0 283.5 283.5" style="enable-background:new 0 0 283.5 283.5;" xml:space="preserve">
<style type="text/css">
	.st0{fill:#FFFFFF;}
</style>
<path class="st0" d="M217.1,261.2c8.9,0,17.3,0,25.9,0c0,1.8,0,3.4,0,5.1c-67.8,0-135.5,0-203.4,0c0-1.7,0-3.3,0-5.1
	c8,0,16,0,24.2,0c0-3.6,0-6.9,0-10.4c5.3,0,10.4,0,15.8,0c0-1.2,0-2.2,0-3.1c0-49.7,0-99.3-0.1-149c0-2.9,0.6-4.9,3.1-6.6
	c2.7-1.9,7.2-3.6,7.5-6.6c0.2-2.8,0.2-6.4,0.2-9.7c0-5.9,0-11.8,0-17.9c13.7,0,27.2,0,41,0c0-3.4,0-6.7,0-10.1c5.2,0,10,0,15.2,0
	c0-10.3,0-20.4,0-30.7c1.7,0,3.1,0,4.8,0c0,10.1,0,20.2,0,30.4c3.6,0,6.9,0,10.4,0c0-4.9,0-9.8,0-14.8c1.8,0,3.3,0,5.2,0
	c0,4.9,0,9.9,0,15c5,0,9.7,0,14.7,0c0,3.4,0,6.7,0,10.1c3.5,0,6.6,0,10.2,0c0,1.2,0,2.1,0,3.1c0,26.9,0,53.8,0,80.7
	c0,1.8,0.4,3.2,1.7,4.5c2.9,2.7,6.6,5.2,8,8.7c1.4,3.4,0.4,7.8,0.4,11.8c0,26.7,0,53.5,0,80.2c0,1.3,0,2.5,0,4c5.1,0,10,0,15.1,0
	C217.1,254.2,217.1,257.5,217.1,261.2z M151.2,128.6c-6.9,0-13.4,0-20,0c0,6.8,0,13.4,0,20c6.8,0,13.3,0,20,0
	C151.2,141.8,151.2,135.3,151.2,128.6z M161.3,148.6c6.9,0,13.4,0,20,0c0-6.8,0-13.4,0-20c-6.8,0-13.3,0-20,0
	C161.3,135.3,161.3,141.9,161.3,148.6z M131.1,88.2c6.8,0,13.4,0,20,0c0-6.7,0-13.3,0-19.9c-6.8,0-13.4,0-20,0
	C131.1,75.1,131.1,81.6,131.1,88.2z M181.5,88.3c0-6.5,0-12.6-0.1-18.8c0-0.5-0.8-1.3-1.3-1.3c-6.2-0.1-12.5-0.1-18.7-0.1
	c0,6.9,0,13.5,0,20.2C168.2,88.3,174.7,88.3,181.5,88.3z M131,98.4c0,0.9,0,1.8,0,2.6c0,4.1,0,8.3,0,12.4c0,5.2,0,5.2,5.1,5.2
	c5,0,9.9,0,14.9,0c0-6.9,0-13.6,0-20.2C144.4,98.4,138,98.4,131,98.4z M161.4,118.6c6.4,0,12.5,0,18.6,0c1.5,0,1.6-0.8,1.6-1.9
	c0-3.8,0-7.6,0-11.4c0-2.3,0-4.5,0-6.8c-6.9,0-13.5,0-20.2,0C161.4,105.2,161.4,111.7,161.4,118.6z M131,178.6c7,0,13.5,0,20.1,0
	c0-6.7,0-13.3,0-20.1c-6.4,0-12.6,0-18.9,0.1c-0.4,0-1.2,0.9-1.2,1.4C131,166.1,131,172.3,131,178.6z M181.5,178.7
	c0-4.7,0-9.1,0-13.5c0-6.7,0-6.7-6.7-6.7c-4.5,0-8.9,0-13.4,0c0,7,0,13.6,0,20.2C168.2,178.7,174.7,178.7,181.5,178.7z M131.1,209.9
	c6.8,0,13.3,0,20,0c0-6.7,0-13.4,0-20c-6.8,0-13.3,0-20,0C131.1,196.6,131.1,203.1,131.1,209.9z M181.5,189.9c-6.9,0-13.5,0-20.1,0
	c0,6.8,0,13.4,0,20.1c6.3,0,12.4,0,18.5-0.1c0.5,0,1.5-0.9,1.5-1.4C181.5,202.5,181.5,196.3,181.5,189.9z M131.2,240.3
	c6.9,0,13.4,0,20,0c0-6.8,0-13.3,0-20c-6.7,0-13.3,0-20,0C131.2,227,131.2,233.6,131.2,240.3z M161.4,220.3c0,6.8,0,13.4,0,20.2
	c4,0,7.8,0,11.6,0c2.8,0,5.5-0.2,8.3-0.4c0.1-2.7,0.2-5.4,0.3-8c0-3.9,0-7.7,0-11.7C174.7,220.3,168.1,220.3,161.4,220.3z
	 M120.3,68.3c-6.7,0-13.3,0-19.9,0c0,6.7,0,13.3,0,20c6.8,0,13.3,0,19.9,0C120.3,81.5,120.3,75,120.3,68.3z M100.2,98.5
	c0,6.4,0,12.6,0.1,18.8c0,0.5,1.2,1.3,1.8,1.3c3.9,0.1,7.8,0.1,11.6,0.1c6.7,0,6.7,0,6.7-6.7c0-4.4,0-8.9,0-13.4
	C113.6,98.5,107,98.5,100.2,98.5z M100.4,128.5c0,6.8,0,13.4,0,20.1c6.8,0,13.3,0,19.9,0c0-6.8,0-13.4,0-20.1
	C113.5,128.5,107.1,128.5,100.4,128.5z M120.5,178.6c0-6.3,0-12.4,0-18.5c0-1.4-0.7-1.7-1.9-1.7c-3.4,0-6.8,0-10.1,0
	c-2.7,0-5.3,0-8.1,0c0,6.9,0,13.4,0,20.1C107,178.6,113.5,178.6,120.5,178.6z M100.2,189.9c0,6.3,0,12.4,0,18.5
	c0,1.6,0.9,1.7,2.1,1.7c5.4,0,10.8,0,16.2,0c0.6,0,1.2-0.2,1.8-0.3c0-6.7,0-13.2,0-19.8C113.6,189.9,107.1,189.9,100.2,189.9z
	 M120.4,220.4c-6.9,0-13.5,0-20.3,0c0,6.3,0,12.4,0.1,18.4c0,0.6,1,1.6,1.6,1.6c5.7,0.1,11.3,0.1,17,0c0.6,0,1.6-1,1.6-1.6
	C120.5,232.8,120.4,226.7,120.4,220.4z"/>
</svg>
