<?xml version="1.0" encoding="utf-8"?>
<!-- Generator: Adobe Illustrator 19.2.1, SVG Export Plug-In . SVG Version: 6.00 Build 0)  -->
<svg version="1.1" id="Layer_1" xmlns="http://www.w3.org/2000/svg" xmlns:xlink="http://www.w3.org/1999/xlink" x="0px" y="0px"
	 viewBox="0 0 283.5 283.5" style="enable-background:new 0 0 283.5 283.5;" xml:space="preserve">
<style type="text/css">
	.st0{fill:#FFFFFF;}
</style>
<circle cx="150.1" cy="139.1" r="122.7"/>
<g>
	<path class="st0" d="M144.5,201.5c-29.2-2.4-38.3-19.9-37.4-41.2c4.5,0,8.9,0,13.4,0c0.1,8.1,0.4,15.9,6.9,21.6
		c4.8,4.1,10.7,5.1,16.8,5.9c0-16.4,0-32.6,0-48.8c-4.7-1.8-9.4-3.4-13.9-5.4c-4.7-2-9-4.8-12.5-8.6c-5.3-5.8-7.5-12.8-8-20.5
		c-0.6-9.1,1.1-17.5,7.2-24.6c5.4-6.3,12.6-9.5,20.6-11c2.2-0.4,4.5-0.6,6.8-1c0-2.9,0-5.8,0-8.8c3.4,0,6.7,0,10.2,0
		c0,2.9,0,5.8,0,8.8c2.5,0.3,4.9,0.6,7.3,1c8.4,1.6,15.9,5,21.3,12c3.6,4.7,5.5,10.1,6.2,16c0.2,2.1,0.3,4.2,0.5,6.3
		c-4.6,0-9.1,0-13.6,0c-0.1-6.3-1-12.2-6.1-16.4c-4.4-3.6-9.7-4.6-15.3-5.1c0,15.3,0,30.5,0,45.4c5,1.4,10,2.5,14.8,4.3
		c9.1,3.3,16.5,8.8,20.7,17.8c2.8,5.9,3.3,12.1,2.9,18.4c-0.5,7.6-2.5,14.6-7.4,20.6c-5.5,6.9-12.9,10.4-21.3,12.1
		c-3.2,0.7-6.5,1-9.9,1.5c0,5.7,0,11.4,0,17.2c-3.4,0-6.7,0-10.1,0C144.5,213.2,144.5,207.4,144.5,201.5z M154.7,188
		c4.6-0.3,8.9-1,13-2.8c6.1-2.6,9.9-7.2,11-13.7c0.6-3.3,0.7-6.6,0.7-10c0-4-1.4-7.6-4.1-10.6c-5.5-6.2-12.9-8.1-20.7-9.7
		C154.7,156.9,154.7,172.3,154.7,188z M144.4,81.8c-4.7,0.4-9.1,1.4-13.1,3.8c-3.4,2.1-5.8,5-6.9,8.9c-1.6,5.5-1.5,11,0.6,16.4
		c3.4,8.9,11.8,10.7,19.5,13.7C144.4,110.1,144.4,96,144.4,81.8z"/>
</g>
</svg>
