<?xml version="1.0" encoding="utf-8"?>
<!-- Generator: Adobe Illustrator 19.2.1, SVG Export Plug-In . SVG Version: 6.00 Build 0)  -->
<svg version="1.1" id="Layer_1" xmlns="http://www.w3.org/2000/svg" xmlns:xlink="http://www.w3.org/1999/xlink" x="0px" y="0px"
	 viewBox="0 0 283.5 283.5" style="enable-background:new 0 0 283.5 283.5;" xml:space="preserve">
<style type="text/css">
	.st0{fill:#FFFFFF;}
</style>
<circle cx="145.7" cy="139.7" r="122.7"/>
<path class="st0" d="M123.2,224.7c-0.6-1.5-1.4-3-1.7-4.5c-2-10.4-0.5-21.3-5.1-31.2c-1.9-4.2-3.9-8.4-5.9-12.7
	c-0.7,0.5-1,0.6-1.1,0.8c-5.8,11.3-15.8,10.3-23,4.3c-4.5-3.7-8.5-8.4-11.2-13.5c-5-9.5-8.8-19.5-13.5-30.2
	c7.6,0.5,15.4,0.7,23.1,1.7c4.7,0.6,9.4,2.2,13.7,4.2c12,5.5,16.9,17.3,12.6,30.7c-2.7-2.7-5.7-6.8-8.4-9.2c-2.7-2.4-5.7-4.5-9.2-6
	c1.9,1.8,4,3.5,5.8,5.3c2.3,2.3,4.3,4.9,6.8,7c1.4,1.2,1.6,5.1,5.1,2.9c0.1-0.1,1.1,1.1,1.6,1.8c2.8,4.6,5.5,9.2,8.6,14.3
	c1.4-12.7,6.7-23.2,15.5-32.2c1.4,1.2,2.7,2.2,4.3,3.5c5.8-5.7,11.4-11.3,16.9-16.9c2.1-2.1,4.1-2.7,7.2-2
	c7.8,1.6,15.3-0.6,22.6-3.8c-7.1,0-14.2,0-22.2,0c6.6-6,12.3-11.2,18.1-16.3c0.6-0.6,1.8-0.5,2.8-0.6c6.2-0.9,11.6-3.5,16.6-7.9
	c-5,1.2-9.5,2.3-13.9,3.4c-0.2-0.3-0.5-0.5-0.7-0.8c5.4-9,9.4-18.4,10.1-28.9c-4.5,8.7-9,17.4-13.6,26.1c-0.5-0.1-0.9-0.3-1.4-0.4
	c0-4.8,0-9.6,0-14.4c-3.5,5.4-5.1,11.3-4,17.6c0.4,2.5-0.1,4.1-1.9,5.5c-5,4.1-10.1,8.1-15.8,12.7c-2.5-8.9-2.5-17.1-1.6-25.4
	c-3.4,8.3-5.4,16.7-3.4,25.7c0.3,1.2,0.1,3.1-0.7,3.9c-6.4,6.2-12.7,13.1-19.3,19.3c-10-6.3-14.8-20-10.7-33.1
	c4.8-15.3,14.4-26.8,29.5-33c5-2,10.1-3.8,15-5.9c14.7-6.1,23.5-18,30.7-31.4c0.3,0,0.6,0,0.8,0c9.8,16.1,14.5,33.6,13.7,52.5
	c-0.8,19.6-6.1,37.6-20,52.3c-14,14.8-31.9,17.1-49.2,6.3c-2-1.3-3.9-2.6-6.2-4.2c-13.6,17.1-16.2,36.2-12.4,56.7
	c0.5,2.7,0.4,4.6-1.7,6.4C125.5,224.7,124.3,224.7,123.2,224.7z"/>
</svg>
