<?xml version="1.0" encoding="utf-8"?>
<!-- Generator: Adobe Illustrator 19.2.1, SVG Export Plug-In . SVG Version: 6.00 Build 0)  -->
<svg version="1.1" id="Lag_1" xmlns="http://www.w3.org/2000/svg" xmlns:xlink="http://www.w3.org/1999/xlink" x="0px" y="0px"
	 viewBox="0 0 250 200" style="enable-background:new 0 0 250 200;" xml:space="preserve">
<style type="text/css">
	.st0{fill-rule:evenodd;clip-rule:evenodd;fill:#C4342E;}
	.st1{fill-rule:evenodd;clip-rule:evenodd;fill:#5B5A5A;}
</style>
<path class="st0" d="M24.8,172.5c0,2.6,1.3,4.1,3.4,4.1c2.6,0,7-4.6,14.2-13.2l2.6,2.4c-10.7,13.9-18.7,21-27.7,21c-5.8,0-9-3.4-9-9
	c0-2.6,0.7-7.2,2.6-12.2l24-64.2c1.6-4.4,2-7.5,2-8.2c0-2.3-1.6-4.1-3.7-4.1c-4.5,0-9.8,6.5-18.6,18.5l-2.8-2.3
	c11.1-17.2,21-25.7,29.5-25.7c7.3,0,10.9,3.7,10.9,11.1c0,5.1-1.9,11.2-4.9,19.1l-20.8,55.4C25.4,168.1,24.8,170.6,24.8,172.5
	L24.8,172.5z"/>
<path class="st1" d="M143.8,118.4h13v13.1h-13V153c0,7.7,2.2,10.7,8.4,10.7c1.1,0,2.5-0.3,4.5-0.8l0.4,11.9c-4,0.9-7.6,1.3-11.1,1.3
	c-14.6,0-20.4-6.9-20.4-22.5l0-22.1h-10.2l0-13.1h11.2l0-15.2h17V118.4L143.8,118.4z"/>
<path class="st1" d="M193.4,103.1c19.8,0,29.4,7.1,29.4,22.8c0,15.4-9.6,23.7-27.7,23.7h-8.2v25h-19v-71.5H193.4L193.4,103.1z
	 M186.9,136.8h5.1c7.6,0,11.5-3.4,11.5-10c0-7-3.9-10.8-11.4-10.8h-5.2V136.8L186.9,136.8z"/>
<path class="st1" d="M97,161.5c-14.3,0-23.7-9-23.7-23c0-14,9.1-23,23.4-23c4.7,0,9.2,1,13.3,2.8v-14.9c-5-1.4-10.4-2.1-16.4-2.1
	c-24.6,0-39.7,14.6-39.7,37.2c0,23.7,15.1,37.8,41.2,37.8c6.8,0,13.4-0.9,19.9-2.6l-2.6-15.3C107,160.5,101.9,161.5,97,161.5
	L97,161.5z"/>
<polygon class="st1" points="228.2,104.1 225.2,104.1 225.2,103.1 232.5,103.1 232.5,104.1 229.4,104.1 229.4,112.3 228.2,112.3 
	228.2,104.1 "/>
<polygon class="st1" points="233.5,103.1 235.1,103.1 238,110.8 240.9,103.1 242.7,103.1 242.7,112.3 241.5,112.3 241.5,104.7 
	241.5,104.7 238.6,112.3 237.6,112.3 234.7,104.7 234.7,104.7 234.7,112.3 233.5,112.3 233.5,103.1 "/>
<path class="st0" d="M78.9,22.4c0,5-4.3,9.1-9.4,9.1c-5.3,0-9.5-4.1-9.5-9.1c0-5,4.3-9.1,9.5-9.1C74.6,13.3,78.9,17.4,78.9,22.4
	L78.9,22.4z"/>
<path class="st0" d="M67.3,54.2c0,5-4.3,9.1-9.5,9.1c-5.2,0-9.4-4.1-9.4-9.1c0-5,4.3-9.1,9.4-9.1C63,45.1,67.3,49.2,67.3,54.2
	L67.3,54.2z"/>
</svg>
