<?xml version="1.0" encoding="utf-8"?>
<!-- Generator: Adobe Illustrator 19.2.1, SVG Export Plug-In . SVG Version: 6.00 Build 0)  -->
<svg version="1.1" id="Layer_1" xmlns="http://www.w3.org/2000/svg" xmlns:xlink="http://www.w3.org/1999/xlink" x="0px" y="0px"
	 viewBox="0 0 283.5 283.5" style="enable-background:new 0 0 283.5 283.5;" xml:space="preserve">
<style type="text/css">
	.st0{fill:#FFFFFF;}
</style>
<circle cx="147.2" cy="141.7" r="122.7"/>
<g>
	<path class="st0" d="M147.5,111.9c6.6,9.4,13.1,18.4,19.3,27.6c5.7,8.5,10.6,17.5,14.6,26.9c10.1,23.3-9.4,50.7-36.2,49.1
		c-19.4-1.1-34.5-16.7-34.9-36.2c-0.1-5.3,1.6-10.2,3.6-15c5.2-12.3,12.5-23.5,20.1-34.4c3.8-5.4,7.7-10.6,11.6-15.9
		C146.1,113.5,146.6,113,147.5,111.9z"/>
	<path class="st0" d="M199,67.8c3.2,5.1,6.4,10,9.4,15c4.4,7.4,8.5,14.9,11.4,23.1c4,11.2-2.9,24.7-15.8,27.8
		c-12.3,3-24.8-5.2-26.9-17.6c-0.6-3.7-0.3-7.3,1.1-10.6c2-4.9,4-9.8,6.6-14.5c4.1-7.3,8.6-14.3,12.9-21.4
		C198,69.1,198.4,68.6,199,67.8z"/>
	<path class="st0" d="M95.6,67.9c2.2,3.4,4.4,6.7,6.5,10.1c5.5,9,11,18,14.4,28.2c2.8,8.4,0,17.3-6.9,23c-6.9,5.8-16.8,6.7-24.7,2.4
		c-7.8-4.2-12.3-12.8-11.3-21.3c0.2-1.7,0.7-3.5,1.3-5.1C77.6,96.7,89.5,75.3,95.6,67.9z"/>
</g>
</svg>
