<?xml version="1.0" encoding="utf-8"?>
<!-- Generator: Adobe Illustrator 19.2.1, SVG Export Plug-In . SVG Version: 6.00 Build 0)  -->
<svg version="1.1" id="Layer_1" xmlns="http://www.w3.org/2000/svg" xmlns:xlink="http://www.w3.org/1999/xlink" x="0px" y="0px"
	 viewBox="0 0 283.5 283.5" style="enable-background:new 0 0 283.5 283.5;" xml:space="preserve">
<style type="text/css">
	.st0{fill:#FFFFFF;}
	.st1{fill:#A1DAF8;}
</style>
<g>
	<path class="st0" d="M202.2,54.7c2,15.1,2.9,31.4-0.5,46c-4.6,20-12.5,39.5-21.2,58.2c-8.6,18.5-3.2,35.2,15.8,41.9
		c16.3,5.8,32.7,11.6,48.4,18.6c26.5,11.8,29.1,17.1,27.3,47.1c-43.6,0-87,0-130.2,0V10.8C172.3,9.5,198.7,27.5,202.2,54.7z"/>
</g>
<g>
	<path class="st1" d="M81.3,54.7c-2,15.1-2.9,31.4,0.5,46c4.6,20,12.5,39.5,21.2,58.2c8.6,18.5,3.2,35.2-15.8,41.9
		c-16.3,5.8-32.7,11.6-48.4,18.6c-26.5,11.8-29.1,17.1-27.3,47.1c43.6,0,87,0,130.2,0V10.8C111.2,9.5,84.8,27.5,81.3,54.7z"/>
</g>
</svg>
