<?xml version="1.0" encoding="utf-8"?>
<!-- Generator: Adobe Illustrator 19.2.1, SVG Export Plug-In . SVG Version: 6.00 Build 0)  -->
<svg version="1.1" id="Lag_1" xmlns="http://www.w3.org/2000/svg" xmlns:xlink="http://www.w3.org/1999/xlink" x="0px" y="0px"
	 viewBox="0 0 230 36.4" style="enable-background:new 0 0 230 36.4;" xml:space="preserve">
<style type="text/css">
	.st0{fill:#FFFFFF;}
	.st1{fill:#C6342C;}
</style>
<g>
	<path class="st0" d="M13.6,18.6c-1.3-0.8-2.6-1.2-4.1-1.2c-3.6,0-5.7,2.8-5.7,8.1c0,5.1,2,7.9,5.2,7.9c0.7,0,1.4-0.1,2.1-0.4v-5.9
		H8.3v-2.9h6v11.1c-1.5,0.8-3.3,1.1-5.4,1.1C3.2,36.4,0,32.6,0,25.7c0-7,3.5-11.1,9.3-11.1c1.6,0,3.1,0.3,4.5,0.9L13.6,18.6z"/>
	<path class="st0" d="M24.1,14.8v18.1h6.2V36h-9.7V14.8H24.1z"/>
</g>
<g>
	<path class="st0" d="M37,14.8v13.6c0,3.3,0.7,4.9,3.1,4.9c2.4,0,3.1-1.6,3.1-4.9V14.8h3.3V28c0,5.6-2,8.3-6.4,8.3s-6.4-2.7-6.4-8.3
		V14.8H37z"/>
	<path class="st0" d="M56.5,14.8L63,31.3V14.8h3V36h-4l-6.5-16.4V36h-3V14.8H56.5z"/>
</g>
<path class="st0" d="M82.9,14.8v3.3L75.2,33h7.9v3H71.5v-3.5l7.6-14.7h-7.3v-3.1h11.1V14.8z"/>
<path class="st0" d="M104.1,33c-1,2-3.3,2-5.5,2c-4.3,0-6.9-0.4-6.9-5.8c0-2.7,0.4-4.8,3.2-5c-1.1-1.1-1.4-1.6-1.4-3.3
	c0-4.1,1.9-4.7,5.3-4.7c4.2,0,5.1,0.8,5.1,5.8h-2.7c0-2.5-0.1-2.9-2.4-2.9c-1.5,0-2.3,0-2.3,1.8c0,1.1,0.3,1.5,1,2.2l5.3,5.1v-2.5
	h2.7V27c0,1.2,0,2.4-0.3,3.5l2.4,2.3l-1.5,2L104.1,33z M96.6,26c-1.8,0.3-1.8,1.3-1.8,3.4c0,2.9,1.1,2.9,3.9,2.9
	c1.6,0,2.7,0,3.4-1.1L96.6,26z"/>
<path class="st0" d="M121.3,14.8v14.4c0,4.7-1.1,7.1-4.9,7.1c-0.8,0-1.6-0.1-2.3-0.4l0.1-3.2c0.4,0.2,0.9,0.3,1.5,0.3
	c1.9,0,2.2-1.4,2.2-4.2v-14C117.9,14.8,121.3,14.8,121.3,14.8z"/>
<g>
	<path class="st0" d="M137.9,14.8v2.9h-6.4v5.9h6v2.9h-6V33h6.7v3H128V14.8H137.9z"/>
	<path class="st0" d="M147.4,14.8l6.5,16.4V14.8h3V36h-4l-6.5-16.4V36h-3V14.8H147.4z"/>
	<path class="st0" d="M171.7,18.4c-1.3-0.6-2.4-0.9-3.3-0.9c-1.8,0-2.8,0.9-2.8,2.5c0,1.5,1,2.3,2.9,3.6c2.7,1.9,4.3,2.9,4.3,6.4
		c0,3.8-2.5,6.4-6.2,6.4c-1.5,0-3.1-0.4-4.3-1l0.2-3.3c1.3,0.8,2.6,1.3,3.9,1.3c1.9,0,2.9-1.1,2.9-2.7c0-2.1-1.3-2.8-3.6-4.4
		c-2.5-1.7-3.7-3.2-3.7-5.9c0-3.5,2.3-5.9,6.1-5.9c1.2,0,2.5,0.2,3.7,0.7L171.7,18.4z"/>
	<path class="st0" d="M187.8,14.8v2.9h-6.4v5.9h6v2.9h-6V33h6.7v3H178V14.8H187.8z"/>
	<path class="st0" d="M197.4,14.8l6.5,16.4V14.8h3V36h-4l-6.5-16.4V36h-3V14.8H197.4z"/>
</g>
<path class="st1" d="M219.1,9.2h-7.3c-1.1,0-1.9-0.9-1.9-1.9c0-1.1,0.9-1.9,1.9-1.9l0,0h0.5c1.7,0,3-1.3,3-3V1.9
	c0-1.1,0.9-1.9,1.9-1.9c1.1,0,1.9,0.9,1.9,1.9L219.1,9.2L219.1,9.2z"/>
<path class="st1" d="M219.1,10.9v7.3c0,1.1-0.9,1.9-1.9,1.9c-1.1,0-1.9-0.9-1.9-1.9l0,0v-0.5c0-1.7-1.3-3-3-3h-0.5
	c-1.1,0-1.9-0.9-1.9-1.9c0-1.1,0.9-1.9,1.9-1.9L219.1,10.9L219.1,10.9z"/>
<path class="st1" d="M220.8,10.9h7.3c1.1,0,1.9,0.9,1.9,1.9c0,1.1-0.9,1.9-1.9,1.9l0,0h-0.5c-1.7,0-3,1.3-3,3v0.5
	c0,1.1-0.9,1.9-1.9,1.9c-1.1,0-1.9-0.9-1.9-1.9L220.8,10.9L220.8,10.9z"/>
<path class="st1" d="M220.8,9.3V1.9c0-1.1,0.9-1.9,1.9-1.9c1.1,0,1.9,0.9,1.9,1.9l0,0v0.5c0,1.7,1.3,3,3,3h0.5
	c1.1,0,1.9,0.9,1.9,1.9c0,1.1-0.9,1.9-1.9,1.9h-7.3V9.3z"/>
</svg>
