<?xml version="1.0" encoding="utf-8"?>
<!-- Generator: Adobe Illustrator 19.2.1, SVG Export Plug-In . SVG Version: 6.00 Build 0)  -->
<svg version="1.1" id="Layer_1" xmlns="http://www.w3.org/2000/svg" xmlns:xlink="http://www.w3.org/1999/xlink" x="0px" y="0px"
	 viewBox="0 0 283.5 283.5" style="enable-background:new 0 0 283.5 283.5;" xml:space="preserve">
<style type="text/css">
	.st0{fill:#FFFFFF;}
</style>
<g>
	<path class="st0" d="M16.5,67.1c1.3-3,3.7-4,6.9-4c79.4,0.1,158.8,0,238.2,0c5.2,0,6.9,1.7,6.9,6.9c0,47.9,0,95.8,0,143.7
		c0,5.2-1.7,6.9-6.9,6.9c-79.4,0-158.8,0-238.2,0c-3.2,0-5.6-1-6.9-4C16.5,166.9,16.5,117,16.5,67.1z M27.1,73.8
		c0,45.6,0,90.9,0,136.4c77,0,153.9,0,230.8,0c0-45.6,0-90.9,0-136.4C180.9,73.8,104,73.8,27.1,73.8z"/>
	<path class="st0" d="M171.1,148.1c12.8,7.4,25.4,14.6,38.1,21.9c9.8,5.6,19.6,11.3,29.4,16.9c2.3,1.3,3.9,3,3.6,5.9
		c-0.4,3.9-4.5,5.7-8.3,3.6c-6.9-3.9-13.8-7.9-20.7-11.9c-16.4-9.4-32.8-18.8-49.2-28.3c-1.4-0.8-2.3-0.8-3.6,0.2
		c-4.6,3.8-9.4,7.5-14,11.2c-2.6,2.1-5,2.1-7.5,0c-4.7-3.7-9.4-7.4-14-11.2c-1.3-1.1-2.2-1.1-3.6-0.3c-22.6,13.1-45.3,26.1-68,39.1
		c-0.8,0.4-1.5,0.9-2.4,1.3c-2.8,1.4-5.8,0.6-7.3-1.9c-1.5-2.5-0.7-5.5,2.1-7.2c6-3.6,12.1-7,18.1-10.4
		c16.7-9.6,33.4-19.2,50.4-28.9c-2-1.6-3.8-3-5.6-4.5c-20.8-16.4-41.6-32.8-62.4-49.2c-0.4-0.3-0.8-0.6-1.1-0.9
		c-2.4-2.1-2.8-5.2-1.1-7.4c1.9-2.4,5-2.8,7.6-0.7c4.9,3.8,9.8,7.7,14.7,11.6c24.7,19.5,49.4,39,74.1,58.6c1.8,1.4,2.8,1.3,4.5-0.1
		c29.2-23.2,58.5-46.3,87.8-69.4c1.3-1,3.2-1.9,4.8-1.9c2.3-0.1,3.9,1.4,4.6,3.8c0.7,2.4-0.2,4.2-2,5.6c-5.2,4.1-10.4,8.3-15.6,12.4
		c-17.2,13.6-34.4,27.1-51.6,40.7C172.2,147,171.7,147.5,171.1,148.1z"/>
</g>
</svg>
