<?xml version="1.0" encoding="utf-8"?>
<!-- Generator: Adobe Illustrator 19.2.1, SVG Export Plug-In . SVG Version: 6.00 Build 0)  -->
<svg version="1.1" id="Layer_1" xmlns="http://www.w3.org/2000/svg" xmlns:xlink="http://www.w3.org/1999/xlink" x="0px" y="0px"
	 viewBox="0 0 283.5 283.5" style="enable-background:new 0 0 283.5 283.5;" xml:space="preserve">
<style type="text/css">
	.st0{fill:#FFFFFF;}
	.st1{fill:none;stroke:#FFFFFF;stroke-width:7;stroke-miterlimit:10;}
</style>
<circle cx="147.2" cy="141.7" r="122.7"/>
<path class="st0" d="M168.5,54c0.3,0.8,0.8,1.7,0.8,2.5c0.1,2.8,0,5.7,0,8.5c0,1.8-0.5,2.3-2.3,2.3c-1.4,0-2.8,0-4.3,0
	c0,0.5,0,0.9,0,1.4c0,20.8,0,41.7,0,62.5c0,0.7,0,1.3,0.9,1.6c16.8,6.6,27.1,18.8,31.1,36.3c4.7,20.2-4.1,41.7-21.4,53
	c-19.9,13-46.6,9.2-62.1-9c-7.1-8.3-11.1-17.9-12.1-28.8c0-0.3-0.1-0.6-0.2-0.9c0-2.4,0-4.7,0-7.1c0.3-2.1,0.5-4.3,1-6.4
	c3.9-17.8,14.2-30.3,31.2-37.1c0.9-0.4,1.3-0.8,1.3-1.8c-0.1-20.8-0.2-41.6-0.3-62.4c0-0.4,0-0.9-0.1-1.4c-1.5,0-2.9,0-4.3,0
	c-1.8,0-2.3-0.5-2.3-2.3c0-2.9-0.1-5.7,0-8.5c0-0.8,0.6-1.7,0.8-2.5C140.4,54,154.4,54,168.5,54z M138.7,137.7
	c-0.6,0.1-1.3,0.1-1.9,0.3c-5.2,1.4-10,3.7-14.3,7c-18.9,14.6-22.8,42-8.6,61.3c11.8,16.1,33,21.6,50.7,13.3
	c20.2-9.6,29.9-33.6,22-54.7c-5.3-14.3-15.5-23.4-30.5-27.3c0-23.2,0-46.6,0-70c-5.9,0-11.7,0-17.5,0
	C138.7,90.9,138.7,114.2,138.7,137.7z"/>
<path d="M138.7,137.7c0-23.5,0-46.8,0-70.2c5.8,0,11.6,0,17.5,0c0,23.4,0,46.8,0,70c15,3.9,25.1,13,30.5,27.3
	c7.9,21.2-1.8,45.2-22,54.7c-17.6,8.4-38.8,2.8-50.7-13.3c-14.2-19.3-10.4-46.7,8.6-61.3c4.3-3.3,9-5.6,14.3-7
	C137.4,137.8,138.1,137.8,138.7,137.7z M145,219.6c19.1,0,33-11,38.4-25.9c1.8-5-0.9-9.8-6.2-11c-5.7-1.4-11.1-0.7-15.9,3
	c-4.4,3.5-9.2,3.7-14.3,1.7c-2.2-0.9-4.4-1.8-6.5-2.7c-5.7-2.6-11.6-3.4-17.8-2.4c-3,0.5-6,1.2-8.5,3.1c-3.2,2.6-4.1,6.2-2.3,9.9
	c0.5,1.1,1,2.2,1.6,3.3C120.8,211.8,132.1,218.9,145,219.6z M153.8,183.8c4.2,0,7.7-3.1,7.9-6.9c0.2-3.8-2.5-7-6.5-7.7
	c-4-0.7-8,1.6-9.2,5.2C144.6,179.1,148.4,183.8,153.8,183.8z M142.2,161.7c0-3.1-2.7-5.7-6.1-5.7c-3.4,0-6.2,2.5-6.2,5.6
	c0,3.2,2.8,5.8,6.2,5.8C139.5,167.3,142.2,164.8,142.2,161.7z M147.5,146.6c2.2,0,4-1.6,4-3.6c0-2-1.7-3.7-3.9-3.7
	c-2.2,0-3.9,1.6-4,3.6C143.6,145,145.3,146.6,147.5,146.6z"/>
<path class="st0" d="M145,219.6c-13-0.7-24.2-7.7-31.5-21.2c-0.6-1.1-1.1-2.2-1.6-3.3c-1.7-3.7-0.9-7.3,2.3-9.9
	c2.5-2,5.4-2.7,8.5-3.1c6.2-0.9,12.1-0.1,17.8,2.4c2.1,1,4.3,1.9,6.5,2.7c5,2,9.8,1.8,14.3-1.7c4.7-3.7,10.2-4.4,15.9-3
	c5.3,1.3,8,6.1,6.2,11C178,208.6,164.1,219.5,145,219.6z"/>
<path d="M153.8,183.8c-5.4,0-9.2-4.7-7.7-9.4c1.1-3.6,5.2-5.9,9.2-5.2c4,0.7,6.7,3.9,6.5,7.7C161.5,180.8,158,183.8,153.8,183.8z
	 M153.6,181.9c0-0.1,0.1-0.2,0.1-0.3c0.2,0,0.5,0,0.7,0c2.5-0.3,4.8-2.3,5-4.6c0.2-2.2-1.3-4.4-3.7-5.3c-0.4-0.1-0.8-0.2-1.2-0.3
	c-2.6-0.4-5.3,1-6.3,3.2c-0.9,2-0.2,4.5,1.8,5.8C151.2,181.1,152.4,181.4,153.6,181.9z"/>
<path d="M142.2,161.7c0,3.1-2.7,5.7-6.1,5.7c-3.4,0-6.2-2.6-6.2-5.8c0-3.1,2.8-5.6,6.2-5.6C139.5,156,142.2,158.5,142.2,161.7z
	 M136.2,157.6c-2.1,0.3-3.8,1.5-4.3,3.3c-0.4,1.4,0.4,3.2,2,3.9c1,0.4,2.3,0.5,3.4,0.4c1.6-0.1,2.5-1.4,3.1-2.8
	c0.5-1.4-0.2-2.5-1.2-3.3C138.3,158.4,137.1,158.1,136.2,157.6z"/>
<path d="M147.5,146.6c-2.2,0-3.9-1.6-3.9-3.7c0-2,1.8-3.6,4-3.6c2.2,0,3.9,1.7,3.9,3.7C151.4,145.1,149.6,146.7,147.5,146.6z
	 M147.4,145.2c1.4,0,2.5-0.9,2.5-2.1c0-1.2-1.1-2.3-2.4-2.3c-1.3,0-2.6,1.2-2.6,2.3C145,144.1,146.2,145.2,147.4,145.2z"/>
<path class="st0" d="M153.6,181.9c-1.2-0.5-2.5-0.8-3.5-1.5c-2-1.3-2.6-3.8-1.8-5.8c1-2.2,3.7-3.6,6.3-3.2c0.4,0.1,0.8,0.2,1.2,0.3
	c2.4,0.8,3.9,3.1,3.7,5.3c-0.3,2.3-2.5,4.3-5,4.6c-0.2,0-0.5,0-0.7,0C153.7,181.7,153.7,181.8,153.6,181.9z"/>
<path class="st0" d="M136.2,157.6c1,0.5,2.1,0.8,3,1.4c1,0.8,1.7,1.9,1.2,3.3c-0.5,1.4-1.4,2.6-3.1,2.8c-1.1,0.1-2.4,0.1-3.4-0.4
	c-1.6-0.7-2.4-2.6-2-3.9C132.4,159.2,134.1,157.9,136.2,157.6z"/>
<path class="st0" d="M147.4,145.2c-1.2,0-2.4-1-2.4-2.1c0-1.1,1.3-2.3,2.6-2.3c1.3,0,2.4,1.1,2.4,2.3
	C149.9,144.3,148.8,145.2,147.4,145.2z"/>
<line class="st1" x1="50.5" y1="66.2" x2="250.4" y2="208.1"/>
</svg>
