<?xml version="1.0" encoding="utf-8"?>
<!-- Generator: Adobe Illustrator 19.2.1, SVG Export Plug-In . SVG Version: 6.00 Build 0)  -->
<svg version="1.1" id="Layer_1" xmlns="http://www.w3.org/2000/svg" xmlns:xlink="http://www.w3.org/1999/xlink" x="0px" y="0px"
	 viewBox="0 0 283.5 283.5" style="enable-background:new 0 0 283.5 283.5;" xml:space="preserve">
<style type="text/css">
	.st0{fill:#FFFFFF;}
</style>
<g>
	<path class="st0" d="M147.7,268.5c-4.1,0-8.3,0-12.4,0c-0.3-0.1-0.7-0.1-1-0.2c-1-0.1-2-0.1-3-0.2c-7.4-0.6-14.7-1.8-21.9-3.8
		c-19.4-5.2-36.5-14.6-51.3-28.1c-13.9-12.7-24.4-27.8-31.5-45.2c-3.3-8-5.6-16.3-7.1-24.8c-0.8-4.8-1.4-9.7-1.7-14.5
		c0-0.9-0.2-1.8-0.4-2.6c0-2.8,0-5.6,0-8.5c0.1-1.1,0.3-2.1,0.4-3.2c0.4-3.7,0.6-7.4,1.1-11.1c1-7.1,2.7-14,5-20.8
		c7.4-21.9,19.8-40.3,37.4-55.2c21.5-18.1,46.4-27.8,74.4-29.3c0.4,0,0.7-0.1,1.1-0.2c3,0,5.9,0,8.9,0c0.3,0.1,0.6,0.1,0.9,0.2
		c1.1,0.1,2.1,0.1,3.2,0.2c7,0.4,13.9,1.5,20.8,3.2c20.5,5,38.6,14.6,54.2,28.9c19.2,17.6,31.7,39.1,37.4,64.5
		c1.4,6.3,2.4,12.8,2.6,19.3c0,0.3,0.1,0.7,0.2,1c0,4.5,0,8.9,0,13.4c-0.1,0.3-0.2,0.6-0.2,0.9c-0.1,4.1-0.6,8.1-1.3,12.1
		c-1.4,9-3.8,17.7-7.2,26.2c-6.2,15.5-15.2,29.2-26.9,41c-13.3,13.5-28.8,23.4-46.7,29.7c-11.1,4-22.5,6.3-34.2,6.9
		C148.4,268.4,148,268.5,147.7,268.5z M249.8,144.8c0-59.8-48.5-108.4-108.3-108.4c-60.4,0-108.4,49-108.4,108.3
		c0,59.8,48.5,108.4,108.3,108.4C200.8,253.2,249.8,205.1,249.8,144.8z"/>
	<path class="st0" d="M74.5,191.3c0.1-2.7,0.9-5.8,2.1-8.8c1.5-3.7,3.4-7.2,5.4-10.6c4.6-7.9,9.4-15.7,15-23
		c4.5-5.9,9.5-11.5,14.7-16.9c7.6-7.9,15.4-15.7,23.5-23c8.3-7.5,17.4-14.1,26.9-19.9c4.6-2.8,9.3-5.5,14.1-7.9
		c3.2-1.6,6.6-2.8,10.2-3.3c1.2-0.2,2.5-0.2,3.7-0.1c1.8,0.2,3.5,0.9,4.8,2.2c0.7,0.6,1.3,1.2,1.8,1.9c3.1,4,6.1,8.1,8.7,12.4
		c1,1.7,1.9,3.4,2.5,5.3c0.6,1.8,0.5,3.5-0.5,5.2c-0.6,1-1.3,1.9-2,2.7c-6.1,6.7-12.5,13.2-19,19.5c-1.1,1.1-2.4,2-3.7,2.8
		c-1.7,1.1-3.5,1.1-5.2-0.1c-2-1.4-4-2.8-6-4.2c-1.7-1.2-3.3-2.5-5-3.7c-0.7-0.5-1.5-0.9-2.2-1.3c-2.2-1.3-4.5-1.3-6.9-0.5
		c-1.3,0.4-2.4,1.1-3.5,1.9c-2.9,2.1-5.6,4.5-8.2,6.9c-7.8,7.4-15.4,15-22.7,22.9c-1.7,1.8-3.2,3.8-4.7,5.8
		c-1.3,1.7-2.1,3.7-2.2,5.9c-0.1,1.2,0.1,2.3,0.6,3.3c0.8,1.8,1.9,3.4,3.1,5c2,2.7,4.3,5.3,6,8.2c0.1,0.1,0.1,0.2,0.2,0.3
		c1.6,2.2,1.6,4.4,0,6.6c-0.8,1.1-1.6,2.1-2.5,3c-6.2,6.4-12.6,12.7-19.2,18.7c-0.8,0.8-1.7,1.5-2.7,2.1c-1.7,1.1-3.6,1.3-5.5,0.6
		c-2.4-0.8-4.5-2-6.6-3.4c-3.6-2.5-7.2-5.1-10.8-7.7c-0.5-0.3-0.9-0.8-1.3-1.1C75.4,197.1,74.4,194.7,74.5,191.3z"/>
</g>
</svg>
