<?xml version="1.0" encoding="utf-8"?>
<!-- Generator: Adobe Illustrator 19.2.1, SVG Export Plug-In . SVG Version: 6.00 Build 0)  -->
<svg version="1.1" id="Layer_1" xmlns="http://www.w3.org/2000/svg" xmlns:xlink="http://www.w3.org/1999/xlink" x="0px" y="0px"
	 viewBox="0 0 283.5 283.5" style="enable-background:new 0 0 283.5 283.5;" xml:space="preserve">
<style type="text/css">
	.st0{fill:#FFFFFF;}
</style>
<g>
	<path class="st0" d="M139.8,265.5c-2.6-2.7-5.6-5.2-7.8-8.2c-24.5-33.7-47.5-68.2-62.9-107.3c-12.7-32.1-9.6-62.7,10-90.9
		c31.6-45.5,93.1-45.5,124.6,0c19.1,27.6,23.3,57.8,10.5,89.2c-6.6,16.2-14,32.3-22.9,47.3c-12.9,21.6-27.5,42.3-41.6,63.2
		c-1.8,2.7-4.9,4.5-7.4,6.8C141.4,265.5,140.6,265.5,139.8,265.5z M141.7,65.1c-22.3-0.1-40.3,17.7-40.3,39.8
		c0,21.8,17.8,39.6,39.8,39.8c22,0.2,39.9-17.3,40.1-39.3C181.5,83,164,65.2,141.7,65.1z"/>
</g>
</svg>
