<?xml version="1.0" encoding="utf-8"?>
<!-- Generator: Adobe Illustrator 19.2.1, SVG Export Plug-In . SVG Version: 6.00 Build 0)  -->
<svg version="1.1" id="Layer_1" xmlns="http://www.w3.org/2000/svg" xmlns:xlink="http://www.w3.org/1999/xlink" x="0px" y="0px"
	 viewBox="0 0 283.5 283.5" style="enable-background:new 0 0 283.5 283.5;" xml:space="preserve">
<style type="text/css">
	.st0{fill:#FFFFFF;}
</style>
<circle cx="150.1" cy="139.1" r="122.7"/>
<g>
	<path class="st0" d="M80,80c46.7,0,93.4,0,140.2,0c0,39.4,0,78.8,0,118.3c-46.7,0-93.4,0-140.2,0C80,158.9,80,119.5,80,80z
		 M214.7,192.7c0-35.9,0-71.5,0-107.3c-20.7,0-41.2,0-61.8,0c0,35.8,0,71.5,0,107.3C173.6,192.7,194,192.7,214.7,192.7z M85.5,85.4
		c0,35.9,0,71.6,0,107.3c20.6,0,41.1,0,61.7,0c0-35.8,0-71.5,0-107.3C126.5,85.4,106,85.4,85.5,85.4z"/>
	<path d="M214.7,192.7c-20.7,0-41.2,0-61.8,0c0-35.8,0-71.5,0-107.3c20.6,0,41.2,0,61.8,0C214.7,121.2,214.7,156.8,214.7,192.7z
		 M193.9,175.7c-12.8,0-25.3,0-37.8,0c0,5.1,0,10,0,15c12.7,0,25.2,0,37.8,0C193.9,185.6,193.9,180.7,193.9,175.7z M193.9,87.4
		c-12.7,0-25.3,0-37.8,0c0,5.1,0,10,0,15c12.7,0,25.2,0,37.8,0C193.9,97.4,193.9,92.5,193.9,87.4z M193.9,140.4
		c-12.8,0-25.3,0-37.8,0c0,5.1,0,10,0,15c12.7,0,25.2,0,37.8,0C193.9,150.3,193.9,145.4,193.9,140.4z M156,173.1
		c12.7,0,25.3,0,37.8,0c0-5.1,0-10.1,0-15c-12.7,0-25.2,0-37.8,0C156,163.1,156,167.9,156,173.1z M156,120.1c12.7,0,25.3,0,37.8,0
		c0-5.1,0-10.1,0-15c-12.7,0-25.2,0-37.8,0C156,110.1,156,115,156,120.1z M156,137.8c12.8,0,25.3,0,37.8,0c0-5.1,0-10.1,0-15
		c-12.7,0-25.2,0-37.8,0C156,127.8,156,132.7,156,137.8z M200.9,87.4c0,5.2,0,10.2,0,15.2c3.6,0,7.1,0,10.7,0c0-5.1,0-10.1,0-15.2
		C207.9,87.4,204.5,87.4,200.9,87.4z M211.5,190.9c0-5.2,0-10.2,0-15.2c-3.7,0-7.1,0-10.6,0c0,5.2,0,10.2,0,15.2
		C204.5,190.9,207.9,190.9,211.5,190.9z M200.9,122.7c0,5.2,0,10.2,0,15.2c3.6,0,7.1,0,10.6,0c0-5.2,0-10.2,0-15.2
		C207.9,122.7,204.5,122.7,200.9,122.7z M200.8,140.3c0,5.2,0,10.2,0,15.2c3.6,0,7.1,0,10.7,0c0-5.1,0-10.1,0-15.2
		C207.9,140.3,204.5,140.3,200.8,140.3z M211.6,158c-3.7,0-7.2,0-10.7,0c0,5.1,0,10.1,0,15.2c3.6,0,7.1,0,10.7,0
		C211.6,168.1,211.6,163.2,211.6,158z M211.6,105.1c-3.7,0-7.2,0-10.7,0c0,5.2,0,10.2,0,15.1c3.7,0,7.2,0,10.7,0
		C211.6,115.1,211.6,110.2,211.6,105.1z"/>
	<path d="M85.5,85.4c20.5,0,41,0,61.7,0c0,35.8,0,71.5,0,107.3c-20.6,0-41,0-61.7,0C85.5,157,85.5,121.3,85.5,85.4z M88.9,190.5
		c0.3,0.2,0.4,0.3,0.5,0.3c12.1,0,24.1,0.1,36.2,0c0.4,0,1.2-0.7,1.2-1.1c0.1-4.7,0.1-9.3,0.1-14.1c-12.8,0-25.4,0-38,0
		C88.9,180.7,88.9,185.7,88.9,190.5z M88.8,173.2c12.4,0,24.6,0,36.8,0c0.4,0,1.2-0.7,1.2-1.1c0.1-4.6,0.1-9.3,0.1-14
		c-12.8,0-25.4,0-38.1,0C88.8,163.1,88.8,168,88.8,173.2z M88.8,102.2c0.3,0.2,0.4,0.3,0.5,0.3c12.1,0,24.1,0.1,36.2,0
		c0.4,0,1.3-0.7,1.3-1.1c0.1-4.7,0.1-9.3,0.1-14.1c-12.8,0-25.3,0-38,0C88.8,92.4,88.8,97.4,88.8,102.2z M88.9,137.6
		c0.3,0.2,0.4,0.3,0.5,0.3c12.1,0,24.1,0.1,36.2,0c0.4,0,1.2-0.7,1.2-1.1c0.1-4.7,0.1-9.3,0.1-14c-12.8,0-25.4,0-38,0
		C88.9,127.8,88.9,132.7,88.9,137.6z M88.9,155.2c0.3,0.2,0.4,0.3,0.5,0.3c12.1,0,24.1,0.1,36.2,0c0.4,0,1.2-0.7,1.2-1.1
		c0.1-4.7,0.1-9.3,0.1-14.1c-12.8,0-25.4,0-38,0C88.9,145.4,88.9,150.4,88.9,155.2z M126.9,105.1c-12.9,0-25.5,0-38.2,0
		c0,4.7,0,9.2,0,13.7c0,1.5,0.8,1.5,1.9,1.5c5,0,10,0,14.9,0c6.4,0,12.8,0,19.2,0c0.9,0,2.1,0.3,2.1-1.3
		C126.9,114.4,126.9,109.8,126.9,105.1z M133.4,102.6c3.8,0,7.5,0,11.2,0c0-5.1,0-10.1,0-15.2c-3.8,0-7.4,0-11.2,0
		C133.4,92.5,133.4,97.4,133.4,102.6z M144.6,122.7c-3.9,0-7.5,0-11.2,0c0,5.2,0,10.2,0,15.2c3.8,0,7.4,0,11.2,0
		C144.6,132.8,144.6,127.8,144.6,122.7z M144.5,120.3c0-5.2,0-10.2,0-15.2c-3.8,0-7.5,0-11.1,0c0,5.2,0,10.2,0,15.2
		C137.2,120.3,140.8,120.3,144.5,120.3z M133.4,158c0,5.3,0,10.3,0,15.2c3.8,0,7.5,0,11,0c0-5.2,0-10.2,0-15.2
		C140.7,158,137.1,158,133.4,158z M133.4,175.6c0,5.2,0,10.2,0,15.2c3.8,0,7.4,0,11.1,0c0-5.1,0-10.1,0-15.2
		C140.8,175.6,137.2,175.6,133.4,175.6z M144.6,140.4c-3.9,0-7.5,0-11.2,0c0,5.2,0,10.2,0,15.2c3.8,0,7.4,0,11.2,0
		C144.6,150.4,144.6,145.5,144.6,140.4z"/>
	<path class="st0" d="M193.9,175.7c0,5,0,9.9,0,15c-12.6,0-25.1,0-37.8,0c0-4.9,0-9.9,0-15C168.6,175.7,181.1,175.7,193.9,175.7z
		 M189.1,186c1.6,0,3.1-1.4,3-3c-0.1-1.7-1.2-2.8-2.9-2.9c-1.7,0-2.8,1-3,2.7C186.1,184.7,187.4,186,189.1,186z"/>
	<path class="st0" d="M193.9,87.4c0,5.1,0,10,0,15c-12.6,0-25.1,0-37.8,0c0-5,0-10,0-15C168.7,87.4,181.2,87.4,193.9,87.4z
		 M189.1,97.8c1.8-0.1,2.8-1.1,3-2.8c0.1-1.5-1.5-3.1-3-3.1c-1.6,0-3,1.5-2.9,3.1C186.3,96.8,187.4,97.7,189.1,97.8z"/>
	<path class="st0" d="M193.9,140.4c0,5,0,9.9,0,15c-12.6,0-25.1,0-37.8,0c0-4.9,0-9.9,0-15C168.6,140.4,181.1,140.4,193.9,140.4z
		 M188.8,150.7c2,0,3.4-1.4,3.3-3c-0.2-1.7-1.2-2.7-2.9-2.9c-1.5-0.1-3,1.4-2.9,3C186.3,149.7,187.3,150.6,188.8,150.7z"/>
	<path class="st0" d="M156,173.1c0-5.1,0-10,0-15c12.6,0,25.2,0,37.8,0c0,5,0,9.9,0,15C181.3,173.1,168.8,173.1,156,173.1z
		 M188.8,168.4c2,0,3.5-1.4,3.3-3c-0.2-1.7-1.2-2.7-2.9-2.9c-1.6-0.1-3,1.4-2.9,3.1C186.3,167.4,187.3,168.3,188.8,168.4z"/>
	<path class="st0" d="M156,120.1c0-5.1,0-10,0-15c12.6,0,25.2,0,37.8,0c0,5,0,9.9,0,15C181.3,120.1,168.8,120.1,156,120.1z
		 M188.9,115.4c2.1,0,3-1.1,3.2-2.7c0.2-1.5-1.4-3.1-2.9-3.1c-1.5,0-3,1.5-2.9,3.1C186.3,114.4,187.4,115.3,188.9,115.4z"/>
	<path class="st0" d="M156,137.8c0-5.1,0-10,0-15c12.6,0,25.2,0,37.8,0c0,5,0,9.9,0,15C181.3,137.8,168.8,137.8,156,137.8z
		 M188.6,133.1c2.1,0.1,3.5-1.2,3.5-2.8c-0.1-1.7-1.1-2.8-2.8-3c-1.5-0.2-3.1,1.3-3,2.9C186.3,131.9,187.2,132.9,188.6,133.1z"/>
	<path class="st0" d="M200.9,87.4c3.6,0,7.1,0,10.7,0c0,5.1,0,10.1,0,15.2c-3.5,0-7,0-10.7,0C200.9,97.6,200.9,92.6,200.9,87.4z"/>
	<path class="st0" d="M211.5,190.9c-3.6,0-7,0-10.6,0c0-5.1,0-10.1,0-15.2c3.5,0,7,0,10.6,0C211.5,180.7,211.5,185.7,211.5,190.9z"
		/>
	<path class="st0" d="M200.9,122.7c3.6,0,7.1,0,10.6,0c0,5.1,0,10.1,0,15.2c-3.5,0-7,0-10.6,0C200.9,132.9,200.9,127.9,200.9,122.7z
		"/>
	<path class="st0" d="M200.8,140.3c3.7,0,7.1,0,10.7,0c0,5.1,0,10.1,0,15.2c-3.6,0-7,0-10.7,0C200.8,150.5,200.8,145.5,200.8,140.3z
		"/>
	<path class="st0" d="M211.6,158c0,5.2,0,10.1,0,15.2c-3.6,0-7.1,0-10.7,0c0-5.1,0-10,0-15.2C204.4,158,207.9,158,211.6,158z"/>
	<path class="st0" d="M211.6,105.1c0,5.1,0,10,0,15.1c-3.6,0-7,0-10.7,0c0-5,0-10,0-15.1C204.3,105.1,207.8,105.1,211.6,105.1z"/>
	<path class="st0" d="M88.9,190.5c0-4.9,0-9.8,0-14.9c12.6,0,25.2,0,38,0c0,4.8,0,9.4-0.1,14.1c0,0.4-0.8,1.1-1.2,1.1
		c-12.1,0-24.1,0-36.2,0C89.3,190.8,89.1,190.7,88.9,190.5z M124.8,183.5c0-2-1.4-3.5-3-3.3c-1.7,0.2-2.7,1.3-2.8,3
		c-0.1,1.6,1.5,3,3.1,2.9C123.8,185.9,124.7,184.9,124.8,183.5z"/>
	<path class="st0" d="M88.8,173.2c0-5.2,0-10.1,0-15.2c12.6,0,25.2,0,38.1,0c0,4.7,0,9.4-0.1,14c0,0.4-0.8,1.1-1.2,1.1
		C113.4,173.3,101.2,173.2,88.8,173.2z M124.8,165.5c-0.1-1.9-1.2-2.8-2.8-3c-1.5-0.2-3.1,1.5-3.1,3c0,1.6,1.5,3,3.2,2.8
		C123.8,168.2,124.7,167.2,124.8,165.5z"/>
	<path class="st0" d="M88.8,102.2c0-4.9,0-9.8,0-14.8c12.7,0,25.2,0,38,0c0,4.8,0,9.4-0.1,14.1c0,0.4-0.8,1.1-1.3,1.1
		c-12.1,0-24.1,0-36.2,0C89.2,102.5,89.1,102.4,88.8,102.2z M122,97.8c1.7,0,2.8-1.2,2.8-2.9c0-1.7-1.4-3.2-2.9-3
		c-1.7,0.2-2.7,1.3-2.9,2.9C118.7,96.4,120.4,97.8,122,97.8z"/>
	<path class="st0" d="M88.9,137.6c0-4.9,0-9.8,0-14.9c12.6,0,25.2,0,38,0c0,4.7,0,9.4-0.1,14c0,0.4-0.8,1.1-1.2,1.1
		c-12.1,0-24.1,0-36.2,0C89.3,137.9,89.1,137.7,88.9,137.6z M124.7,130.7c0-2.2-1.4-3.7-2.9-3.5c-1.7,0.2-2.7,1.3-2.9,3
		c-0.1,1.5,1.5,3,3.1,2.9C123.7,133,124.7,132,124.7,130.7z"/>
	<path class="st0" d="M88.9,155.2c0-4.9,0-9.8,0-14.9c12.6,0,25.2,0,38,0c0,4.8,0,9.4-0.1,14.1c0,0.4-0.8,1.1-1.2,1.1
		c-12.1,0-24.1,0-36.2,0C89.3,155.5,89.1,155.4,88.9,155.2z M121.4,150.7c2.2,0,3.4-1.1,3.4-2.9c0-1.8-1.1-2.7-2.8-2.9
		c-1.5-0.2-3.2,1.5-3.1,3C119.1,149.5,120,150.6,121.4,150.7z"/>
	<path class="st0" d="M126.9,105.1c0,4.8,0,9.3,0,13.9c0,1.6-1.2,1.3-2.1,1.3c-6.4,0-12.8,0-19.2,0c-5,0-10,0-14.9,0
		c-1.1,0-1.9,0-1.9-1.5c0-4.5,0-9,0-13.7C101.4,105.1,114,105.1,126.9,105.1z M124.7,112.8c0-2.1-1.1-3-2.8-3.2
		c-1.4-0.2-3.1,1.5-3.1,3c0,1.5,1.5,2.9,3.1,2.9C123.8,115.3,124.7,114.3,124.7,112.8z"/>
	<path class="st0" d="M133.4,102.6c0-5.2,0-10.1,0-15.2c3.7,0,7.4,0,11.2,0c0,5.1,0,10.1,0,15.2
		C140.8,102.6,137.2,102.6,133.4,102.6z"/>
	<path class="st0" d="M144.6,122.7c0,5.1,0,10,0,15.2c-3.7,0-7.4,0-11.2,0c0-5,0-10,0-15.2C137,122.7,140.7,122.7,144.6,122.7z"/>
	<path class="st0" d="M144.5,120.3c-3.7,0-7.3,0-11.1,0c0-5.1,0-10.1,0-15.2c3.6,0,7.3,0,11.1,0
		C144.5,110.1,144.5,115.1,144.5,120.3z"/>
	<path class="st0" d="M133.4,158c3.7,0,7.2,0,11,0c0,5,0,10,0,15.2c-3.5,0-7.2,0-11,0C133.4,168.3,133.4,163.3,133.4,158z"/>
	<path class="st0" d="M133.4,175.6c3.8,0,7.4,0,11.1,0c0,5.1,0,10.1,0,15.2c-3.7,0-7.3,0-11.1,0
		C133.4,185.8,133.4,180.8,133.4,175.6z"/>
	<path class="st0" d="M144.6,140.4c0,5.1,0,10,0,15.2c-3.7,0-7.4,0-11.2,0c0-5,0-10,0-15.2C137,140.4,140.7,140.4,144.6,140.4z"/>
	<path d="M189.1,186c-1.7,0-3-1.4-2.8-3.1c0.1-1.8,1.3-2.8,3-2.7c1.7,0,2.8,1.1,2.9,2.9C192.2,184.7,190.7,186.1,189.1,186z"/>
	<path d="M189.1,97.8c-1.7-0.1-2.8-1-2.9-2.8c-0.1-1.6,1.3-3.1,2.9-3.1c1.5,0,3.1,1.5,3,3.1C191.9,96.7,190.9,97.7,189.1,97.8z"/>
	<path d="M188.8,150.7c-1.4-0.2-2.5-1-2.5-2.8c-0.1-1.6,1.4-3.2,2.9-3c1.7,0.1,2.7,1.2,2.9,2.9C192.2,149.4,190.7,150.7,188.8,150.7
		z"/>
	<path d="M188.8,168.4c-1.4-0.1-2.4-1-2.5-2.8c-0.1-1.6,1.4-3.2,2.9-3.1c1.7,0.1,2.8,1.1,2.9,2.9C192.2,167,190.8,168.4,188.8,168.4
		z"/>
	<path d="M188.9,115.4c-1.5-0.1-2.6-1-2.6-2.8c-0.1-1.6,1.4-3.1,2.9-3.1c1.5,0,3.1,1.6,2.9,3.1C191.9,114.4,190.9,115.4,188.9,115.4
		z"/>
	<path d="M188.6,133.1c-1.4-0.2-2.4-1.1-2.4-2.9c0-1.6,1.5-3.1,3-2.9c1.7,0.2,2.7,1.3,2.8,3C192.2,131.8,190.7,133.1,188.6,133.1z"
		/>
	<path d="M124.8,183.5c-0.1,1.4-1,2.4-2.7,2.6c-1.6,0.1-3.2-1.3-3.1-2.9c0.1-1.7,1.1-2.8,2.8-3C123.3,180,124.7,181.4,124.8,183.5z"
		/>
	<path d="M124.8,165.5c-0.1,1.7-0.9,2.7-2.7,2.8c-1.6,0.1-3.1-1.3-3.2-2.8c0-1.5,1.6-3.2,3.1-3C123.6,162.7,124.7,163.6,124.8,165.5
		z"/>
	<path d="M122,97.8c-1.6,0-3.2-1.4-3.1-2.9c0.2-1.7,1.2-2.7,2.9-2.9c1.5-0.2,2.9,1.3,2.9,3C124.7,96.6,123.6,97.7,122,97.8z"/>
	<path d="M124.7,130.7c-0.1,1.3-1,2.2-2.8,2.3c-1.6,0.1-3.2-1.4-3.1-2.9c0.2-1.7,1.2-2.8,2.9-3C123.3,127,124.7,128.5,124.7,130.7z"
		/>
	<path d="M121.4,150.7c-1.4-0.1-2.3-1.2-2.5-2.9c-0.2-1.4,1.6-3.1,3.1-3c1.7,0.2,2.8,1.1,2.8,2.9
		C124.8,149.6,123.6,150.8,121.4,150.7z"/>
	<path d="M124.7,112.8c-0.1,1.5-0.9,2.5-2.7,2.6c-1.6,0.1-3.1-1.3-3.1-2.9c0-1.5,1.7-3.2,3.1-3C123.6,109.8,124.8,110.7,124.7,112.8
		z"/>
</g>
</svg>
